ISO-10303-21;
HEADER;
/* Generated by software containing ST-Developer
 * from STEP Tools, Inc. (www.steptools.com) 
 */

FILE_DESCRIPTION(
/* description */ (''),
/* implementation_level */ '2;1');

FILE_NAME(
/* name */ 'ObereHaelfte.stp',
/* time_stamp */ '2025-06-26T08:28:12+02:00',
/* author */ ('mexen'),
/* organization */ (''),
/* preprocessor_version */ 'ST-DEVELOPER v20',
/* originating_system */ 'Autodesk Inventor 2025',
/* authorisation */ '');

FILE_SCHEMA (('AUTOMOTIVE_DESIGN { 1 0 10303 214 3 1 1 }'));
ENDSEC;

DATA;
#10=MECHANICAL_DESIGN_GEOMETRIC_PRESENTATION_REPRESENTATION('',(#13,#14),
#1686);
#11=SHAPE_REPRESENTATION_RELATIONSHIP('SRR','None',#1693,#12);
#12=ADVANCED_BREP_SHAPE_REPRESENTATION('',(#15,#16),#1685);
#13=STYLED_ITEM('',(#1702),#15);
#14=STYLED_ITEM('',(#1702),#16);
#15=MANIFOLD_SOLID_BREP('Volumenk\X\F6rper1',#1020);
#16=MANIFOLD_SOLID_BREP('Volumenk\X\F6rper1',#1021);
#17=FACE_BOUND('',#97,.T.);
#18=FACE_BOUND('',#98,.T.);
#19=FACE_BOUND('',#100,.T.);
#20=FACE_BOUND('',#126,.T.);
#21=FACE_BOUND('',#133,.T.);
#22=CYLINDRICAL_SURFACE('',#1047,11.25);
#23=CYLINDRICAL_SURFACE('',#1049,3.5);
#24=CYLINDRICAL_SURFACE('',#1052,11.25);
#25=CYLINDRICAL_SURFACE('',#1061,3.5);
#26=CYLINDRICAL_SURFACE('',#1065,5.1);
#27=CYLINDRICAL_SURFACE('',#1068,5.1);
#28=CYLINDRICAL_SURFACE('',#1092,30.);
#29=CYLINDRICAL_SURFACE('',#1094,30.);
#30=CYLINDRICAL_SURFACE('',#1112,35.);
#31=FACE_OUTER_BOUND('',#83,.T.);
#32=FACE_OUTER_BOUND('',#84,.T.);
#33=FACE_OUTER_BOUND('',#85,.T.);
#34=FACE_OUTER_BOUND('',#86,.T.);
#35=FACE_OUTER_BOUND('',#87,.T.);
#36=FACE_OUTER_BOUND('',#88,.T.);
#37=FACE_OUTER_BOUND('',#89,.T.);
#38=FACE_OUTER_BOUND('',#90,.T.);
#39=FACE_OUTER_BOUND('',#91,.T.);
#40=FACE_OUTER_BOUND('',#92,.T.);
#41=FACE_OUTER_BOUND('',#93,.T.);
#42=FACE_OUTER_BOUND('',#94,.T.);
#43=FACE_OUTER_BOUND('',#95,.T.);
#44=FACE_OUTER_BOUND('',#96,.T.);
#45=FACE_OUTER_BOUND('',#99,.T.);
#46=FACE_OUTER_BOUND('',#101,.T.);
#47=FACE_OUTER_BOUND('',#102,.T.);
#48=FACE_OUTER_BOUND('',#103,.T.);
#49=FACE_OUTER_BOUND('',#104,.T.);
#50=FACE_OUTER_BOUND('',#105,.T.);
#51=FACE_OUTER_BOUND('',#106,.T.);
#52=FACE_OUTER_BOUND('',#107,.T.);
#53=FACE_OUTER_BOUND('',#108,.T.);
#54=FACE_OUTER_BOUND('',#109,.T.);
#55=FACE_OUTER_BOUND('',#110,.T.);
#56=FACE_OUTER_BOUND('',#111,.T.);
#57=FACE_OUTER_BOUND('',#112,.T.);
#58=FACE_OUTER_BOUND('',#113,.T.);
#59=FACE_OUTER_BOUND('',#114,.T.);
#60=FACE_OUTER_BOUND('',#115,.T.);
#61=FACE_OUTER_BOUND('',#116,.T.);
#62=FACE_OUTER_BOUND('',#117,.T.);
#63=FACE_OUTER_BOUND('',#118,.T.);
#64=FACE_OUTER_BOUND('',#119,.T.);
#65=FACE_OUTER_BOUND('',#120,.T.);
#66=FACE_OUTER_BOUND('',#121,.T.);
#67=FACE_OUTER_BOUND('',#122,.T.);
#68=FACE_OUTER_BOUND('',#123,.T.);
#69=FACE_OUTER_BOUND('',#124,.T.);
#70=FACE_OUTER_BOUND('',#125,.T.);
#71=FACE_OUTER_BOUND('',#127,.T.);
#72=FACE_OUTER_BOUND('',#128,.T.);
#73=FACE_OUTER_BOUND('',#129,.T.);
#74=FACE_OUTER_BOUND('',#130,.T.);
#75=FACE_OUTER_BOUND('',#131,.T.);
#76=FACE_OUTER_BOUND('',#132,.T.);
#77=FACE_OUTER_BOUND('',#134,.T.);
#78=FACE_OUTER_BOUND('',#135,.T.);
#79=FACE_OUTER_BOUND('',#136,.T.);
#80=FACE_OUTER_BOUND('',#137,.T.);
#81=FACE_OUTER_BOUND('',#138,.T.);
#82=FACE_OUTER_BOUND('',#139,.T.);
#83=EDGE_LOOP('',(#639,#640,#641,#642));
#84=EDGE_LOOP('',(#643,#644,#645,#646));
#85=EDGE_LOOP('',(#647,#648,#649,#650));
#86=EDGE_LOOP('',(#651,#652,#653,#654,#655,#656,#657,#658,#659,#660,#661,
#662,#663,#664,#665,#666));
#87=EDGE_LOOP('',(#667,#668,#669,#670));
#88=EDGE_LOOP('',(#671,#672,#673,#674));
#89=EDGE_LOOP('',(#675,#676,#677,#678,#679,#680,#681,#682));
#90=EDGE_LOOP('',(#683,#684,#685,#686));
#91=EDGE_LOOP('',(#687,#688,#689,#690,#691,#692,#693,#694));
#92=EDGE_LOOP('',(#695,#696,#697,#698));
#93=EDGE_LOOP('',(#699,#700,#701,#702));
#94=EDGE_LOOP('',(#703,#704,#705,#706));
#95=EDGE_LOOP('',(#707,#708,#709,#710));
#96=EDGE_LOOP('',(#711,#712,#713,#714,#715,#716,#717,#718));
#97=EDGE_LOOP('',(#719));
#98=EDGE_LOOP('',(#720));
#99=EDGE_LOOP('',(#721,#722,#723,#724));
#100=EDGE_LOOP('',(#725));
#101=EDGE_LOOP('',(#726,#727,#728,#729));
#102=EDGE_LOOP('',(#730,#731,#732,#733));
#103=EDGE_LOOP('',(#734,#735,#736,#737));
#104=EDGE_LOOP('',(#738,#739,#740,#741));
#105=EDGE_LOOP('',(#742,#743,#744,#745,#746,#747,#748,#749,#750,#751,#752,
#753));
#106=EDGE_LOOP('',(#754,#755,#756));
#107=EDGE_LOOP('',(#757,#758,#759));
#108=EDGE_LOOP('',(#760,#761,#762));
#109=EDGE_LOOP('',(#763,#764,#765));
#110=EDGE_LOOP('',(#766,#767,#768,#769));
#111=EDGE_LOOP('',(#770,#771,#772,#773,#774,#775,#776,#777,#778,#779,#780,
#781,#782,#783,#784,#785,#786,#787,#788,#789,#790,#791,#792,#793));
#112=EDGE_LOOP('',(#794,#795,#796,#797,#798));
#113=EDGE_LOOP('',(#799,#800,#801,#802,#803,#804,#805,#806,#807,#808,#809,
#810));
#114=EDGE_LOOP('',(#811,#812,#813,#814,#815));
#115=EDGE_LOOP('',(#816,#817,#818,#819));
#116=EDGE_LOOP('',(#820,#821,#822,#823,#824));
#117=EDGE_LOOP('',(#825,#826,#827,#828));
#118=EDGE_LOOP('',(#829,#830,#831,#832,#833));
#119=EDGE_LOOP('',(#834,#835,#836,#837));
#120=EDGE_LOOP('',(#838,#839,#840,#841));
#121=EDGE_LOOP('',(#842,#843,#844,#845));
#122=EDGE_LOOP('',(#846,#847,#848,#849,#850,#851,#852,#853));
#123=EDGE_LOOP('',(#854,#855,#856));
#124=EDGE_LOOP('',(#857,#858,#859,#860));
#125=EDGE_LOOP('',(#861,#862,#863,#864));
#126=EDGE_LOOP('',(#865));
#127=EDGE_LOOP('',(#866,#867,#868));
#128=EDGE_LOOP('',(#869,#870,#871));
#129=EDGE_LOOP('',(#872,#873,#874,#875));
#130=EDGE_LOOP('',(#876,#877,#878,#879,#880,#881,#882,#883));
#131=EDGE_LOOP('',(#884,#885,#886));
#132=EDGE_LOOP('',(#887,#888,#889,#890,#891,#892,#893,#894,#895,#896,#897,
#898));
#133=EDGE_LOOP('',(#899,#900,#901,#902));
#134=EDGE_LOOP('',(#903,#904,#905,#906));
#135=EDGE_LOOP('',(#907,#908,#909));
#136=EDGE_LOOP('',(#910,#911,#912));
#137=EDGE_LOOP('',(#913,#914,#915,#916));
#138=EDGE_LOOP('',(#917,#918,#919,#920));
#139=EDGE_LOOP('',(#921,#922,#923,#924));
#140=CIRCLE('',#1045,11.25);
#141=CIRCLE('',#1046,3.5);
#142=CIRCLE('',#1048,11.25);
#143=CIRCLE('',#1050,3.5);
#144=CIRCLE('',#1053,11.25);
#145=CIRCLE('',#1054,11.25);
#146=CIRCLE('',#1056,3.5);
#147=CIRCLE('',#1059,30.);
#148=CIRCLE('',#1062,3.5);
#149=CIRCLE('',#1064,30.);
#150=CIRCLE('',#1066,5.1);
#151=CIRCLE('',#1067,5.1);
#152=CIRCLE('',#1069,5.1);
#153=CIRCLE('',#1070,5.1);
#154=CIRCLE('',#1093,30.);
#155=CIRCLE('',#1095,30.);
#156=CIRCLE('',#1097,35.);
#157=CIRCLE('',#1099,35.);
#158=CIRCLE('',#1101,35.);
#159=CIRCLE('',#1104,35.);
#160=CIRCLE('',#1106,35.);
#161=CIRCLE('',#1109,35.);
#162=CIRCLE('',#1111,35.);
#163=CIRCLE('',#1113,35.);
#164=LINE('',#1397,#283);
#165=LINE('',#1401,#284);
#166=LINE('',#1405,#285);
#167=LINE('',#1408,#286);
#168=LINE('',#1411,#287);
#169=LINE('',#1414,#288);
#170=LINE('',#1417,#289);
#171=LINE('',#1419,#290);
#172=LINE('',#1421,#291);
#173=LINE('',#1423,#292);
#174=LINE('',#1425,#293);
#175=LINE('',#1427,#294);
#176=LINE('',#1429,#295);
#177=LINE('',#1431,#296);
#178=LINE('',#1433,#297);
#179=LINE('',#1435,#298);
#180=LINE('',#1437,#299);
#181=LINE('',#1439,#300);
#182=LINE('',#1440,#301);
#183=LINE('',#1444,#302);
#184=LINE('',#1449,#303);
#185=LINE('',#1453,#304);
#186=LINE('',#1455,#305);
#187=LINE('',#1457,#306);
#188=LINE('',#1459,#307);
#189=LINE('',#1461,#308);
#190=LINE('',#1462,#309);
#191=LINE('',#1466,#310);
#192=LINE('',#1469,#311);
#193=LINE('',#1471,#312);
#194=LINE('',#1473,#313);
#195=LINE('',#1475,#314);
#196=LINE('',#1477,#315);
#197=LINE('',#1478,#316);
#198=LINE('',#1481,#317);
#199=LINE('',#1485,#318);
#200=LINE('',#1491,#319);
#201=LINE('',#1497,#320);
#202=LINE('',#1501,#321);
#203=LINE('',#1503,#322);
#204=LINE('',#1505,#323);
#205=LINE('',#1507,#324);
#206=LINE('',#1508,#325);
#207=LINE('',#1509,#326);
#208=LINE('',#1513,#327);
#209=LINE('',#1515,#328);
#210=LINE('',#1517,#329);
#211=LINE('',#1518,#330);
#212=LINE('',#1522,#331);
#213=LINE('',#1524,#332);
#214=LINE('',#1526,#333);
#215=LINE('',#1527,#334);
#216=LINE('',#1531,#335);
#217=LINE('',#1533,#336);
#218=LINE('',#1535,#337);
#219=LINE('',#1536,#338);
#220=LINE('',#1540,#339);
#221=LINE('',#1541,#340);
#222=LINE('',#1542,#341);
#223=LINE('',#1546,#342);
#224=LINE('',#1547,#343);
#225=LINE('',#1548,#344);
#226=LINE('',#1551,#345);
#227=LINE('',#1553,#346);
#228=LINE('',#1555,#347);
#229=LINE('',#1557,#348);
#230=LINE('',#1559,#349);
#231=LINE('',#1560,#350);
#232=LINE('',#1562,#351);
#233=LINE('',#1564,#352);
#234=LINE('',#1566,#353);
#235=LINE('',#1567,#354);
#236=LINE('',#1569,#355);
#237=LINE('',#1571,#356);
#238=LINE('',#1574,#357);
#239=LINE('',#1575,#358);
#240=LINE('',#1578,#359);
#241=LINE('',#1579,#360);
#242=LINE('',#1582,#361);
#243=LINE('',#1584,#362);
#244=LINE('',#1585,#363);
#245=LINE('',#1588,#364);
#246=LINE('',#1590,#365);
#247=LINE('',#1592,#366);
#248=LINE('',#1594,#367);
#249=LINE('',#1596,#368);
#250=LINE('',#1598,#369);
#251=LINE('',#1600,#370);
#252=LINE('',#1601,#371);
#253=LINE('',#1603,#372);
#254=LINE('',#1605,#373);
#255=LINE('',#1607,#374);
#256=LINE('',#1608,#375);
#257=LINE('',#1610,#376);
#258=LINE('',#1611,#377);
#259=LINE('',#1613,#378);
#260=LINE('',#1614,#379);
#261=LINE('',#1615,#380);
#262=LINE('',#1617,#381);
#263=LINE('',#1621,#382);
#264=LINE('',#1622,#383);
#265=LINE('',#1625,#384);
#266=LINE('',#1626,#385);
#267=LINE('',#1628,#386);
#268=LINE('',#1636,#387);
#269=LINE('',#1640,#388);
#270=LINE('',#1646,#389);
#271=LINE('',#1647,#390);
#272=LINE('',#1654,#391);
#273=LINE('',#1655,#392);
#274=LINE('',#1666,#393);
#275=LINE('',#1668,#394);
#276=LINE('',#1669,#395);
#277=LINE('',#1673,#396);
#278=LINE('',#1675,#397);
#279=LINE('',#1676,#398);
#280=LINE('',#1678,#399);
#281=LINE('',#1679,#400);
#282=LINE('',#1681,#401);
#283=VECTOR('',#1124,10.);
#284=VECTOR('',#1127,10.);
#285=VECTOR('',#1132,10.);
#286=VECTOR('',#1135,10.);
#287=VECTOR('',#1138,10.);
#288=VECTOR('',#1141,10.);
#289=VECTOR('',#1144,10.);
#290=VECTOR('',#1145,10.);
#291=VECTOR('',#1146,10.);
#292=VECTOR('',#1147,10.);
#293=VECTOR('',#1148,10.);
#294=VECTOR('',#1149,10.);
#295=VECTOR('',#1150,10.);
#296=VECTOR('',#1151,10.);
#297=VECTOR('',#1152,10.);
#298=VECTOR('',#1153,10.);
#299=VECTOR('',#1154,10.);
#300=VECTOR('',#1155,10.);
#301=VECTOR('',#1156,10.);
#302=VECTOR('',#1159,10.);
#303=VECTOR('',#1166,10.);
#304=VECTOR('',#1171,10.);
#305=VECTOR('',#1172,10.);
#306=VECTOR('',#1173,10.);
#307=VECTOR('',#1174,10.);
#308=VECTOR('',#1175,10.);
#309=VECTOR('',#1176,10.);
#310=VECTOR('',#1181,10.);
#311=VECTOR('',#1184,10.);
#312=VECTOR('',#1185,10.);
#313=VECTOR('',#1186,10.);
#314=VECTOR('',#1187,10.);
#315=VECTOR('',#1188,10.);
#316=VECTOR('',#1189,10.);
#317=VECTOR('',#1192,10.);
#318=VECTOR('',#1197,10.);
#319=VECTOR('',#1204,5.1);
#320=VECTOR('',#1211,5.1);
#321=VECTOR('',#1216,10.);
#322=VECTOR('',#1217,10.);
#323=VECTOR('',#1218,10.);
#324=VECTOR('',#1219,10.);
#325=VECTOR('',#1220,10.);
#326=VECTOR('',#1221,10.);
#327=VECTOR('',#1224,10.);
#328=VECTOR('',#1225,10.);
#329=VECTOR('',#1226,10.);
#330=VECTOR('',#1227,10.);
#331=VECTOR('',#1230,10.);
#332=VECTOR('',#1231,10.);
#333=VECTOR('',#1232,10.);
#334=VECTOR('',#1233,10.);
#335=VECTOR('',#1236,10.);
#336=VECTOR('',#1237,10.);
#337=VECTOR('',#1238,10.);
#338=VECTOR('',#1239,10.);
#339=VECTOR('',#1242,10.);
#340=VECTOR('',#1243,10.);
#341=VECTOR('',#1244,10.);
#342=VECTOR('',#1247,10.);
#343=VECTOR('',#1248,10.);
#344=VECTOR('',#1249,10.);
#345=VECTOR('',#1252,10.);
#346=VECTOR('',#1253,10.);
#347=VECTOR('',#1254,10.);
#348=VECTOR('',#1255,10.);
#349=VECTOR('',#1256,10.);
#350=VECTOR('',#1257,10.);
#351=VECTOR('',#1258,10.);
#352=VECTOR('',#1259,10.);
#353=VECTOR('',#1260,10.);
#354=VECTOR('',#1261,10.);
#355=VECTOR('',#1264,10.);
#356=VECTOR('',#1267,10.);
#357=VECTOR('',#1270,10.);
#358=VECTOR('',#1271,10.);
#359=VECTOR('',#1274,10.);
#360=VECTOR('',#1275,10.);
#361=VECTOR('',#1278,10.);
#362=VECTOR('',#1279,10.);
#363=VECTOR('',#1280,10.);
#364=VECTOR('',#1283,10.);
#365=VECTOR('',#1284,10.);
#366=VECTOR('',#1285,10.);
#367=VECTOR('',#1286,10.);
#368=VECTOR('',#1287,10.);
#369=VECTOR('',#1288,10.);
#370=VECTOR('',#1289,10.);
#371=VECTOR('',#1290,10.);
#372=VECTOR('',#1291,10.);
#373=VECTOR('',#1292,10.);
#374=VECTOR('',#1293,10.);
#375=VECTOR('',#1294,10.);
#376=VECTOR('',#1297,10.);
#377=VECTOR('',#1298,10.);
#378=VECTOR('',#1301,10.);
#379=VECTOR('',#1302,10.);
#380=VECTOR('',#1303,10.);
#381=VECTOR('',#1306,10.);
#382=VECTOR('',#1311,10.);
#383=VECTOR('',#1312,10.);
#384=VECTOR('',#1315,10.);
#385=VECTOR('',#1316,10.);
#386=VECTOR('',#1319,10.);
#387=VECTOR('',#1332,10.);
#388=VECTOR('',#1337,10.);
#389=VECTOR('',#1346,10.);
#390=VECTOR('',#1347,10.);
#391=VECTOR('',#1358,10.);
#392=VECTOR('',#1359,10.);
#393=VECTOR('',#1376,10.);
#394=VECTOR('',#1377,10.);
#395=VECTOR('',#1378,10.);
#396=VECTOR('',#1381,10.);
#397=VECTOR('',#1382,10.);
#398=VECTOR('',#1383,10.);
#399=VECTOR('',#1386,10.);
#400=VECTOR('',#1387,10.);
#401=VECTOR('',#1390,10.);
#402=VERTEX_POINT('',#1395);
#403=VERTEX_POINT('',#1396);
#404=VERTEX_POINT('',#1398);
#405=VERTEX_POINT('',#1400);
#406=VERTEX_POINT('',#1404);
#407=VERTEX_POINT('',#1406);
#408=VERTEX_POINT('',#1410);
#409=VERTEX_POINT('',#1412);
#410=VERTEX_POINT('',#1416);
#411=VERTEX_POINT('',#1418);
#412=VERTEX_POINT('',#1420);
#413=VERTEX_POINT('',#1422);
#414=VERTEX_POINT('',#1424);
#415=VERTEX_POINT('',#1426);
#416=VERTEX_POINT('',#1428);
#417=VERTEX_POINT('',#1430);
#418=VERTEX_POINT('',#1432);
#419=VERTEX_POINT('',#1434);
#420=VERTEX_POINT('',#1436);
#421=VERTEX_POINT('',#1438);
#422=VERTEX_POINT('',#1442);
#423=VERTEX_POINT('',#1443);
#424=VERTEX_POINT('',#1448);
#425=VERTEX_POINT('',#1452);
#426=VERTEX_POINT('',#1454);
#427=VERTEX_POINT('',#1456);
#428=VERTEX_POINT('',#1458);
#429=VERTEX_POINT('',#1460);
#430=VERTEX_POINT('',#1464);
#431=VERTEX_POINT('',#1468);
#432=VERTEX_POINT('',#1470);
#433=VERTEX_POINT('',#1472);
#434=VERTEX_POINT('',#1474);
#435=VERTEX_POINT('',#1476);
#436=VERTEX_POINT('',#1480);
#437=VERTEX_POINT('',#1484);
#438=VERTEX_POINT('',#1488);
#439=VERTEX_POINT('',#1490);
#440=VERTEX_POINT('',#1494);
#441=VERTEX_POINT('',#1496);
#442=VERTEX_POINT('',#1500);
#443=VERTEX_POINT('',#1502);
#444=VERTEX_POINT('',#1504);
#445=VERTEX_POINT('',#1506);
#446=VERTEX_POINT('',#1511);
#447=VERTEX_POINT('',#1512);
#448=VERTEX_POINT('',#1514);
#449=VERTEX_POINT('',#1516);
#450=VERTEX_POINT('',#1520);
#451=VERTEX_POINT('',#1521);
#452=VERTEX_POINT('',#1523);
#453=VERTEX_POINT('',#1525);
#454=VERTEX_POINT('',#1529);
#455=VERTEX_POINT('',#1530);
#456=VERTEX_POINT('',#1532);
#457=VERTEX_POINT('',#1534);
#458=VERTEX_POINT('',#1538);
#459=VERTEX_POINT('',#1539);
#460=VERTEX_POINT('',#1544);
#461=VERTEX_POINT('',#1545);
#462=VERTEX_POINT('',#1550);
#463=VERTEX_POINT('',#1552);
#464=VERTEX_POINT('',#1554);
#465=VERTEX_POINT('',#1556);
#466=VERTEX_POINT('',#1558);
#467=VERTEX_POINT('',#1561);
#468=VERTEX_POINT('',#1563);
#469=VERTEX_POINT('',#1565);
#470=VERTEX_POINT('',#1573);
#471=VERTEX_POINT('',#1577);
#472=VERTEX_POINT('',#1581);
#473=VERTEX_POINT('',#1583);
#474=VERTEX_POINT('',#1587);
#475=VERTEX_POINT('',#1589);
#476=VERTEX_POINT('',#1591);
#477=VERTEX_POINT('',#1593);
#478=VERTEX_POINT('',#1595);
#479=VERTEX_POINT('',#1597);
#480=VERTEX_POINT('',#1599);
#481=VERTEX_POINT('',#1602);
#482=VERTEX_POINT('',#1604);
#483=VERTEX_POINT('',#1606);
#484=VERTEX_POINT('',#1620);
#485=VERTEX_POINT('',#1624);
#486=VERTEX_POINT('',#1635);
#487=VERTEX_POINT('',#1639);
#488=VERTEX_POINT('',#1645);
#489=VERTEX_POINT('',#1653);
#490=VERTEX_POINT('',#1664);
#491=VERTEX_POINT('',#1665);
#492=VERTEX_POINT('',#1667);
#493=VERTEX_POINT('',#1671);
#494=VERTEX_POINT('',#1672);
#495=VERTEX_POINT('',#1674);
#496=EDGE_CURVE('',#402,#403,#164,.T.);
#497=EDGE_CURVE('',#404,#402,#140,.T.);
#498=EDGE_CURVE('',#405,#404,#165,.T.);
#499=EDGE_CURVE('',#403,#405,#141,.T.);
#500=EDGE_CURVE('',#406,#402,#166,.T.);
#501=EDGE_CURVE('',#407,#406,#142,.T.);
#502=EDGE_CURVE('',#404,#407,#167,.T.);
#503=EDGE_CURVE('',#405,#408,#168,.T.);
#504=EDGE_CURVE('',#409,#408,#143,.T.);
#505=EDGE_CURVE('',#403,#409,#169,.T.);
#506=EDGE_CURVE('',#407,#410,#170,.T.);
#507=EDGE_CURVE('',#410,#411,#171,.T.);
#508=EDGE_CURVE('',#411,#412,#172,.T.);
#509=EDGE_CURVE('',#412,#413,#173,.T.);
#510=EDGE_CURVE('',#413,#414,#174,.T.);
#511=EDGE_CURVE('',#414,#415,#175,.T.);
#512=EDGE_CURVE('',#416,#415,#176,.T.);
#513=EDGE_CURVE('',#417,#416,#177,.T.);
#514=EDGE_CURVE('',#417,#418,#178,.T.);
#515=EDGE_CURVE('',#418,#419,#179,.T.);
#516=EDGE_CURVE('',#420,#419,#180,.T.);
#517=EDGE_CURVE('',#420,#421,#181,.T.);
#518=EDGE_CURVE('',#408,#421,#182,.T.);
#519=EDGE_CURVE('',#422,#423,#183,.T.);
#520=EDGE_CURVE('',#422,#413,#144,.T.);
#521=EDGE_CURVE('',#423,#412,#145,.T.);
#522=EDGE_CURVE('',#424,#422,#184,.T.);
#523=EDGE_CURVE('',#414,#424,#146,.T.);
#524=EDGE_CURVE('',#411,#425,#185,.T.);
#525=EDGE_CURVE('',#425,#426,#186,.T.);
#526=EDGE_CURVE('',#426,#427,#187,.T.);
#527=EDGE_CURVE('',#427,#428,#188,.T.);
#528=EDGE_CURVE('',#428,#429,#189,.T.);
#529=EDGE_CURVE('',#423,#429,#190,.T.);
#530=EDGE_CURVE('',#421,#430,#147,.T.);
#531=EDGE_CURVE('',#430,#409,#191,.T.);
#532=EDGE_CURVE('',#431,#406,#192,.T.);
#533=EDGE_CURVE('',#431,#432,#193,.T.);
#534=EDGE_CURVE('',#432,#433,#194,.T.);
#535=EDGE_CURVE('',#433,#434,#195,.T.);
#536=EDGE_CURVE('',#434,#435,#196,.T.);
#537=EDGE_CURVE('',#435,#410,#197,.T.);
#538=EDGE_CURVE('',#424,#436,#198,.T.);
#539=EDGE_CURVE('',#415,#436,#148,.T.);
#540=EDGE_CURVE('',#436,#437,#199,.T.);
#541=EDGE_CURVE('',#437,#416,#149,.T.);
#542=EDGE_CURVE('',#438,#438,#150,.T.);
#543=EDGE_CURVE('',#438,#439,#200,.T.);
#544=EDGE_CURVE('',#439,#439,#151,.T.);
#545=EDGE_CURVE('',#440,#440,#152,.T.);
#546=EDGE_CURVE('',#440,#441,#201,.T.);
#547=EDGE_CURVE('',#441,#441,#153,.T.);
#548=EDGE_CURVE('',#428,#442,#202,.T.);
#549=EDGE_CURVE('',#442,#443,#203,.T.);
#550=EDGE_CURVE('',#444,#443,#204,.T.);
#551=EDGE_CURVE('',#444,#445,#205,.T.);
#552=EDGE_CURVE('',#432,#445,#206,.T.);
#553=EDGE_CURVE('',#429,#431,#207,.T.);
#554=EDGE_CURVE('',#446,#447,#208,.T.);
#555=EDGE_CURVE('',#446,#448,#209,.T.);
#556=EDGE_CURVE('',#449,#448,#210,.T.);
#557=EDGE_CURVE('',#447,#449,#211,.T.);
#558=EDGE_CURVE('',#450,#451,#212,.T.);
#559=EDGE_CURVE('',#452,#450,#213,.T.);
#560=EDGE_CURVE('',#453,#452,#214,.T.);
#561=EDGE_CURVE('',#451,#453,#215,.T.);
#562=EDGE_CURVE('',#454,#455,#216,.T.);
#563=EDGE_CURVE('',#454,#456,#217,.T.);
#564=EDGE_CURVE('',#456,#457,#218,.T.);
#565=EDGE_CURVE('',#455,#457,#219,.T.);
#566=EDGE_CURVE('',#458,#459,#220,.T.);
#567=EDGE_CURVE('',#459,#453,#221,.T.);
#568=EDGE_CURVE('',#458,#452,#222,.T.);
#569=EDGE_CURVE('',#460,#461,#223,.T.);
#570=EDGE_CURVE('',#457,#460,#224,.T.);
#571=EDGE_CURVE('',#461,#456,#225,.T.);
#572=EDGE_CURVE('',#462,#450,#226,.T.);
#573=EDGE_CURVE('',#451,#463,#227,.T.);
#574=EDGE_CURVE('',#464,#463,#228,.T.);
#575=EDGE_CURVE('',#464,#465,#229,.T.);
#576=EDGE_CURVE('',#466,#465,#230,.T.);
#577=EDGE_CURVE('',#466,#444,#231,.T.);
#578=EDGE_CURVE('',#443,#467,#232,.T.);
#579=EDGE_CURVE('',#468,#467,#233,.T.);
#580=EDGE_CURVE('',#468,#469,#234,.T.);
#581=EDGE_CURVE('',#462,#469,#235,.T.);
#582=EDGE_CURVE('',#467,#442,#236,.T.);
#583=EDGE_CURVE('',#445,#466,#237,.T.);
#584=EDGE_CURVE('',#465,#470,#238,.T.);
#585=EDGE_CURVE('',#470,#464,#239,.T.);
#586=EDGE_CURVE('',#471,#468,#240,.T.);
#587=EDGE_CURVE('',#469,#471,#241,.T.);
#588=EDGE_CURVE('',#472,#467,#242,.T.);
#589=EDGE_CURVE('',#473,#472,#243,.T.);
#590=EDGE_CURVE('',#468,#473,#244,.T.);
#591=EDGE_CURVE('',#474,#430,#245,.T.);
#592=EDGE_CURVE('',#475,#474,#246,.T.);
#593=EDGE_CURVE('',#476,#475,#247,.T.);
#594=EDGE_CURVE('',#476,#477,#248,.T.);
#595=EDGE_CURVE('',#478,#477,#249,.T.);
#596=EDGE_CURVE('',#479,#478,#250,.T.);
#597=EDGE_CURVE('',#480,#479,#251,.T.);
#598=EDGE_CURVE('',#480,#448,#252,.T.);
#599=EDGE_CURVE('',#481,#446,#253,.T.);
#600=EDGE_CURVE('',#482,#481,#254,.T.);
#601=EDGE_CURVE('',#482,#483,#255,.T.);
#602=EDGE_CURVE('',#437,#483,#256,.T.);
#603=EDGE_CURVE('',#425,#471,#257,.T.);
#604=EDGE_CURVE('',#426,#473,#258,.T.);
#605=EDGE_CURVE('',#461,#462,#259,.T.);
#606=EDGE_CURVE('',#435,#470,#260,.T.);
#607=EDGE_CURVE('',#463,#460,#261,.T.);
#608=EDGE_CURVE('',#427,#472,#262,.T.);
#609=EDGE_CURVE('',#434,#484,#263,.T.);
#610=EDGE_CURVE('',#484,#465,#264,.T.);
#611=EDGE_CURVE('',#433,#485,#265,.T.);
#612=EDGE_CURVE('',#485,#484,#266,.T.);
#613=EDGE_CURVE('',#466,#485,#267,.T.);
#614=EDGE_CURVE('',#417,#483,#154,.T.);
#615=EDGE_CURVE('',#474,#420,#155,.T.);
#616=EDGE_CURVE('',#486,#455,#268,.T.);
#617=EDGE_CURVE('',#486,#459,#156,.T.);
#618=EDGE_CURVE('',#487,#477,#269,.T.);
#619=EDGE_CURVE('',#487,#476,#157,.T.);
#620=EDGE_CURVE('',#419,#475,#158,.T.);
#621=EDGE_CURVE('',#478,#488,#270,.T.);
#622=EDGE_CURVE('',#488,#487,#271,.T.);
#623=EDGE_CURVE('',#488,#479,#159,.T.);
#624=EDGE_CURVE('',#449,#480,#160,.T.);
#625=EDGE_CURVE('',#489,#486,#272,.T.);
#626=EDGE_CURVE('',#454,#489,#273,.T.);
#627=EDGE_CURVE('',#489,#458,#161,.T.);
#628=EDGE_CURVE('',#447,#481,#162,.T.);
#629=EDGE_CURVE('',#418,#482,#163,.T.);
#630=EDGE_CURVE('',#490,#491,#274,.T.);
#631=EDGE_CURVE('',#491,#492,#275,.T.);
#632=EDGE_CURVE('',#492,#490,#276,.T.);
#633=EDGE_CURVE('',#493,#494,#277,.T.);
#634=EDGE_CURVE('',#494,#495,#278,.T.);
#635=EDGE_CURVE('',#495,#493,#279,.T.);
#636=EDGE_CURVE('',#490,#494,#280,.T.);
#637=EDGE_CURVE('',#492,#495,#281,.T.);
#638=EDGE_CURVE('',#491,#493,#282,.T.);
#639=ORIENTED_EDGE('',*,*,#496,.F.);
#640=ORIENTED_EDGE('',*,*,#497,.F.);
#641=ORIENTED_EDGE('',*,*,#498,.F.);
#642=ORIENTED_EDGE('',*,*,#499,.F.);
#643=ORIENTED_EDGE('',*,*,#500,.F.);
#644=ORIENTED_EDGE('',*,*,#501,.F.);
#645=ORIENTED_EDGE('',*,*,#502,.F.);
#646=ORIENTED_EDGE('',*,*,#497,.T.);
#647=ORIENTED_EDGE('',*,*,#499,.T.);
#648=ORIENTED_EDGE('',*,*,#503,.T.);
#649=ORIENTED_EDGE('',*,*,#504,.F.);
#650=ORIENTED_EDGE('',*,*,#505,.F.);
#651=ORIENTED_EDGE('',*,*,#498,.T.);
#652=ORIENTED_EDGE('',*,*,#502,.T.);
#653=ORIENTED_EDGE('',*,*,#506,.T.);
#654=ORIENTED_EDGE('',*,*,#507,.T.);
#655=ORIENTED_EDGE('',*,*,#508,.T.);
#656=ORIENTED_EDGE('',*,*,#509,.T.);
#657=ORIENTED_EDGE('',*,*,#510,.T.);
#658=ORIENTED_EDGE('',*,*,#511,.T.);
#659=ORIENTED_EDGE('',*,*,#512,.F.);
#660=ORIENTED_EDGE('',*,*,#513,.F.);
#661=ORIENTED_EDGE('',*,*,#514,.T.);
#662=ORIENTED_EDGE('',*,*,#515,.T.);
#663=ORIENTED_EDGE('',*,*,#516,.F.);
#664=ORIENTED_EDGE('',*,*,#517,.T.);
#665=ORIENTED_EDGE('',*,*,#518,.F.);
#666=ORIENTED_EDGE('',*,*,#503,.F.);
#667=ORIENTED_EDGE('',*,*,#519,.F.);
#668=ORIENTED_EDGE('',*,*,#520,.T.);
#669=ORIENTED_EDGE('',*,*,#509,.F.);
#670=ORIENTED_EDGE('',*,*,#521,.F.);
#671=ORIENTED_EDGE('',*,*,#522,.F.);
#672=ORIENTED_EDGE('',*,*,#523,.F.);
#673=ORIENTED_EDGE('',*,*,#510,.F.);
#674=ORIENTED_EDGE('',*,*,#520,.F.);
#675=ORIENTED_EDGE('',*,*,#521,.T.);
#676=ORIENTED_EDGE('',*,*,#508,.F.);
#677=ORIENTED_EDGE('',*,*,#524,.T.);
#678=ORIENTED_EDGE('',*,*,#525,.T.);
#679=ORIENTED_EDGE('',*,*,#526,.T.);
#680=ORIENTED_EDGE('',*,*,#527,.T.);
#681=ORIENTED_EDGE('',*,*,#528,.T.);
#682=ORIENTED_EDGE('',*,*,#529,.F.);
#683=ORIENTED_EDGE('',*,*,#530,.T.);
#684=ORIENTED_EDGE('',*,*,#531,.T.);
#685=ORIENTED_EDGE('',*,*,#504,.T.);
#686=ORIENTED_EDGE('',*,*,#518,.T.);
#687=ORIENTED_EDGE('',*,*,#501,.T.);
#688=ORIENTED_EDGE('',*,*,#532,.F.);
#689=ORIENTED_EDGE('',*,*,#533,.T.);
#690=ORIENTED_EDGE('',*,*,#534,.T.);
#691=ORIENTED_EDGE('',*,*,#535,.T.);
#692=ORIENTED_EDGE('',*,*,#536,.T.);
#693=ORIENTED_EDGE('',*,*,#537,.T.);
#694=ORIENTED_EDGE('',*,*,#506,.F.);
#695=ORIENTED_EDGE('',*,*,#523,.T.);
#696=ORIENTED_EDGE('',*,*,#538,.T.);
#697=ORIENTED_EDGE('',*,*,#539,.F.);
#698=ORIENTED_EDGE('',*,*,#511,.F.);
#699=ORIENTED_EDGE('',*,*,#512,.T.);
#700=ORIENTED_EDGE('',*,*,#539,.T.);
#701=ORIENTED_EDGE('',*,*,#540,.T.);
#702=ORIENTED_EDGE('',*,*,#541,.T.);
#703=ORIENTED_EDGE('',*,*,#542,.F.);
#704=ORIENTED_EDGE('',*,*,#543,.T.);
#705=ORIENTED_EDGE('',*,*,#544,.F.);
#706=ORIENTED_EDGE('',*,*,#543,.F.);
#707=ORIENTED_EDGE('',*,*,#545,.F.);
#708=ORIENTED_EDGE('',*,*,#546,.T.);
#709=ORIENTED_EDGE('',*,*,#547,.F.);
#710=ORIENTED_EDGE('',*,*,#546,.F.);
#711=ORIENTED_EDGE('',*,*,#528,.F.);
#712=ORIENTED_EDGE('',*,*,#548,.T.);
#713=ORIENTED_EDGE('',*,*,#549,.T.);
#714=ORIENTED_EDGE('',*,*,#550,.F.);
#715=ORIENTED_EDGE('',*,*,#551,.T.);
#716=ORIENTED_EDGE('',*,*,#552,.F.);
#717=ORIENTED_EDGE('',*,*,#533,.F.);
#718=ORIENTED_EDGE('',*,*,#553,.F.);
#719=ORIENTED_EDGE('',*,*,#547,.T.);
#720=ORIENTED_EDGE('',*,*,#544,.T.);
#721=ORIENTED_EDGE('',*,*,#554,.F.);
#722=ORIENTED_EDGE('',*,*,#555,.T.);
#723=ORIENTED_EDGE('',*,*,#556,.F.);
#724=ORIENTED_EDGE('',*,*,#557,.F.);
#725=ORIENTED_EDGE('',*,*,#545,.T.);
#726=ORIENTED_EDGE('',*,*,#558,.F.);
#727=ORIENTED_EDGE('',*,*,#559,.F.);
#728=ORIENTED_EDGE('',*,*,#560,.F.);
#729=ORIENTED_EDGE('',*,*,#561,.F.);
#730=ORIENTED_EDGE('',*,*,#562,.F.);
#731=ORIENTED_EDGE('',*,*,#563,.T.);
#732=ORIENTED_EDGE('',*,*,#564,.T.);
#733=ORIENTED_EDGE('',*,*,#565,.F.);
#734=ORIENTED_EDGE('',*,*,#566,.T.);
#735=ORIENTED_EDGE('',*,*,#567,.T.);
#736=ORIENTED_EDGE('',*,*,#560,.T.);
#737=ORIENTED_EDGE('',*,*,#568,.F.);
#738=ORIENTED_EDGE('',*,*,#569,.F.);
#739=ORIENTED_EDGE('',*,*,#570,.F.);
#740=ORIENTED_EDGE('',*,*,#564,.F.);
#741=ORIENTED_EDGE('',*,*,#571,.F.);
#742=ORIENTED_EDGE('',*,*,#572,.T.);
#743=ORIENTED_EDGE('',*,*,#558,.T.);
#744=ORIENTED_EDGE('',*,*,#573,.T.);
#745=ORIENTED_EDGE('',*,*,#574,.F.);
#746=ORIENTED_EDGE('',*,*,#575,.T.);
#747=ORIENTED_EDGE('',*,*,#576,.F.);
#748=ORIENTED_EDGE('',*,*,#577,.T.);
#749=ORIENTED_EDGE('',*,*,#550,.T.);
#750=ORIENTED_EDGE('',*,*,#578,.T.);
#751=ORIENTED_EDGE('',*,*,#579,.F.);
#752=ORIENTED_EDGE('',*,*,#580,.T.);
#753=ORIENTED_EDGE('',*,*,#581,.F.);
#754=ORIENTED_EDGE('',*,*,#582,.F.);
#755=ORIENTED_EDGE('',*,*,#578,.F.);
#756=ORIENTED_EDGE('',*,*,#549,.F.);
#757=ORIENTED_EDGE('',*,*,#583,.F.);
#758=ORIENTED_EDGE('',*,*,#551,.F.);
#759=ORIENTED_EDGE('',*,*,#577,.F.);
#760=ORIENTED_EDGE('',*,*,#584,.F.);
#761=ORIENTED_EDGE('',*,*,#575,.F.);
#762=ORIENTED_EDGE('',*,*,#585,.F.);
#763=ORIENTED_EDGE('',*,*,#586,.F.);
#764=ORIENTED_EDGE('',*,*,#587,.F.);
#765=ORIENTED_EDGE('',*,*,#580,.F.);
#766=ORIENTED_EDGE('',*,*,#579,.T.);
#767=ORIENTED_EDGE('',*,*,#588,.F.);
#768=ORIENTED_EDGE('',*,*,#589,.F.);
#769=ORIENTED_EDGE('',*,*,#590,.F.);
#770=ORIENTED_EDGE('',*,*,#496,.T.);
#771=ORIENTED_EDGE('',*,*,#505,.T.);
#772=ORIENTED_EDGE('',*,*,#531,.F.);
#773=ORIENTED_EDGE('',*,*,#591,.F.);
#774=ORIENTED_EDGE('',*,*,#592,.F.);
#775=ORIENTED_EDGE('',*,*,#593,.F.);
#776=ORIENTED_EDGE('',*,*,#594,.T.);
#777=ORIENTED_EDGE('',*,*,#595,.F.);
#778=ORIENTED_EDGE('',*,*,#596,.F.);
#779=ORIENTED_EDGE('',*,*,#597,.F.);
#780=ORIENTED_EDGE('',*,*,#598,.T.);
#781=ORIENTED_EDGE('',*,*,#555,.F.);
#782=ORIENTED_EDGE('',*,*,#599,.F.);
#783=ORIENTED_EDGE('',*,*,#600,.F.);
#784=ORIENTED_EDGE('',*,*,#601,.T.);
#785=ORIENTED_EDGE('',*,*,#602,.F.);
#786=ORIENTED_EDGE('',*,*,#540,.F.);
#787=ORIENTED_EDGE('',*,*,#538,.F.);
#788=ORIENTED_EDGE('',*,*,#522,.T.);
#789=ORIENTED_EDGE('',*,*,#519,.T.);
#790=ORIENTED_EDGE('',*,*,#529,.T.);
#791=ORIENTED_EDGE('',*,*,#553,.T.);
#792=ORIENTED_EDGE('',*,*,#532,.T.);
#793=ORIENTED_EDGE('',*,*,#500,.T.);
#794=ORIENTED_EDGE('',*,*,#525,.F.);
#795=ORIENTED_EDGE('',*,*,#603,.T.);
#796=ORIENTED_EDGE('',*,*,#586,.T.);
#797=ORIENTED_EDGE('',*,*,#590,.T.);
#798=ORIENTED_EDGE('',*,*,#604,.F.);
#799=ORIENTED_EDGE('',*,*,#605,.T.);
#800=ORIENTED_EDGE('',*,*,#581,.T.);
#801=ORIENTED_EDGE('',*,*,#587,.T.);
#802=ORIENTED_EDGE('',*,*,#603,.F.);
#803=ORIENTED_EDGE('',*,*,#524,.F.);
#804=ORIENTED_EDGE('',*,*,#507,.F.);
#805=ORIENTED_EDGE('',*,*,#537,.F.);
#806=ORIENTED_EDGE('',*,*,#606,.T.);
#807=ORIENTED_EDGE('',*,*,#585,.T.);
#808=ORIENTED_EDGE('',*,*,#574,.T.);
#809=ORIENTED_EDGE('',*,*,#607,.T.);
#810=ORIENTED_EDGE('',*,*,#569,.T.);
#811=ORIENTED_EDGE('',*,*,#527,.F.);
#812=ORIENTED_EDGE('',*,*,#608,.T.);
#813=ORIENTED_EDGE('',*,*,#588,.T.);
#814=ORIENTED_EDGE('',*,*,#582,.T.);
#815=ORIENTED_EDGE('',*,*,#548,.F.);
#816=ORIENTED_EDGE('',*,*,#526,.F.);
#817=ORIENTED_EDGE('',*,*,#604,.T.);
#818=ORIENTED_EDGE('',*,*,#589,.T.);
#819=ORIENTED_EDGE('',*,*,#608,.F.);
#820=ORIENTED_EDGE('',*,*,#536,.F.);
#821=ORIENTED_EDGE('',*,*,#609,.T.);
#822=ORIENTED_EDGE('',*,*,#610,.T.);
#823=ORIENTED_EDGE('',*,*,#584,.T.);
#824=ORIENTED_EDGE('',*,*,#606,.F.);
#825=ORIENTED_EDGE('',*,*,#535,.F.);
#826=ORIENTED_EDGE('',*,*,#611,.T.);
#827=ORIENTED_EDGE('',*,*,#612,.T.);
#828=ORIENTED_EDGE('',*,*,#609,.F.);
#829=ORIENTED_EDGE('',*,*,#534,.F.);
#830=ORIENTED_EDGE('',*,*,#552,.T.);
#831=ORIENTED_EDGE('',*,*,#583,.T.);
#832=ORIENTED_EDGE('',*,*,#613,.T.);
#833=ORIENTED_EDGE('',*,*,#611,.F.);
#834=ORIENTED_EDGE('',*,*,#576,.T.);
#835=ORIENTED_EDGE('',*,*,#610,.F.);
#836=ORIENTED_EDGE('',*,*,#612,.F.);
#837=ORIENTED_EDGE('',*,*,#613,.F.);
#838=ORIENTED_EDGE('',*,*,#602,.T.);
#839=ORIENTED_EDGE('',*,*,#614,.F.);
#840=ORIENTED_EDGE('',*,*,#513,.T.);
#841=ORIENTED_EDGE('',*,*,#541,.F.);
#842=ORIENTED_EDGE('',*,*,#615,.F.);
#843=ORIENTED_EDGE('',*,*,#591,.T.);
#844=ORIENTED_EDGE('',*,*,#530,.F.);
#845=ORIENTED_EDGE('',*,*,#517,.F.);
#846=ORIENTED_EDGE('',*,*,#616,.T.);
#847=ORIENTED_EDGE('',*,*,#565,.T.);
#848=ORIENTED_EDGE('',*,*,#570,.T.);
#849=ORIENTED_EDGE('',*,*,#607,.F.);
#850=ORIENTED_EDGE('',*,*,#573,.F.);
#851=ORIENTED_EDGE('',*,*,#561,.T.);
#852=ORIENTED_EDGE('',*,*,#567,.F.);
#853=ORIENTED_EDGE('',*,*,#617,.F.);
#854=ORIENTED_EDGE('',*,*,#618,.T.);
#855=ORIENTED_EDGE('',*,*,#594,.F.);
#856=ORIENTED_EDGE('',*,*,#619,.F.);
#857=ORIENTED_EDGE('',*,*,#615,.T.);
#858=ORIENTED_EDGE('',*,*,#516,.T.);
#859=ORIENTED_EDGE('',*,*,#620,.T.);
#860=ORIENTED_EDGE('',*,*,#592,.T.);
#861=ORIENTED_EDGE('',*,*,#621,.F.);
#862=ORIENTED_EDGE('',*,*,#595,.T.);
#863=ORIENTED_EDGE('',*,*,#618,.F.);
#864=ORIENTED_EDGE('',*,*,#622,.F.);
#865=ORIENTED_EDGE('',*,*,#542,.T.);
#866=ORIENTED_EDGE('',*,*,#621,.T.);
#867=ORIENTED_EDGE('',*,*,#623,.T.);
#868=ORIENTED_EDGE('',*,*,#596,.T.);
#869=ORIENTED_EDGE('',*,*,#556,.T.);
#870=ORIENTED_EDGE('',*,*,#598,.F.);
#871=ORIENTED_EDGE('',*,*,#624,.F.);
#872=ORIENTED_EDGE('',*,*,#562,.T.);
#873=ORIENTED_EDGE('',*,*,#616,.F.);
#874=ORIENTED_EDGE('',*,*,#625,.F.);
#875=ORIENTED_EDGE('',*,*,#626,.F.);
#876=ORIENTED_EDGE('',*,*,#626,.T.);
#877=ORIENTED_EDGE('',*,*,#627,.T.);
#878=ORIENTED_EDGE('',*,*,#568,.T.);
#879=ORIENTED_EDGE('',*,*,#559,.T.);
#880=ORIENTED_EDGE('',*,*,#572,.F.);
#881=ORIENTED_EDGE('',*,*,#605,.F.);
#882=ORIENTED_EDGE('',*,*,#571,.T.);
#883=ORIENTED_EDGE('',*,*,#563,.F.);
#884=ORIENTED_EDGE('',*,*,#554,.T.);
#885=ORIENTED_EDGE('',*,*,#628,.T.);
#886=ORIENTED_EDGE('',*,*,#599,.T.);
#887=ORIENTED_EDGE('',*,*,#619,.T.);
#888=ORIENTED_EDGE('',*,*,#593,.T.);
#889=ORIENTED_EDGE('',*,*,#620,.F.);
#890=ORIENTED_EDGE('',*,*,#515,.F.);
#891=ORIENTED_EDGE('',*,*,#629,.T.);
#892=ORIENTED_EDGE('',*,*,#600,.T.);
#893=ORIENTED_EDGE('',*,*,#628,.F.);
#894=ORIENTED_EDGE('',*,*,#557,.T.);
#895=ORIENTED_EDGE('',*,*,#624,.T.);
#896=ORIENTED_EDGE('',*,*,#597,.T.);
#897=ORIENTED_EDGE('',*,*,#623,.F.);
#898=ORIENTED_EDGE('',*,*,#622,.T.);
#899=ORIENTED_EDGE('',*,*,#566,.F.);
#900=ORIENTED_EDGE('',*,*,#627,.F.);
#901=ORIENTED_EDGE('',*,*,#625,.T.);
#902=ORIENTED_EDGE('',*,*,#617,.T.);
#903=ORIENTED_EDGE('',*,*,#614,.T.);
#904=ORIENTED_EDGE('',*,*,#601,.F.);
#905=ORIENTED_EDGE('',*,*,#629,.F.);
#906=ORIENTED_EDGE('',*,*,#514,.F.);
#907=ORIENTED_EDGE('',*,*,#630,.T.);
#908=ORIENTED_EDGE('',*,*,#631,.T.);
#909=ORIENTED_EDGE('',*,*,#632,.T.);
#910=ORIENTED_EDGE('',*,*,#633,.T.);
#911=ORIENTED_EDGE('',*,*,#634,.T.);
#912=ORIENTED_EDGE('',*,*,#635,.T.);
#913=ORIENTED_EDGE('',*,*,#634,.F.);
#914=ORIENTED_EDGE('',*,*,#636,.F.);
#915=ORIENTED_EDGE('',*,*,#632,.F.);
#916=ORIENTED_EDGE('',*,*,#637,.T.);
#917=ORIENTED_EDGE('',*,*,#633,.F.);
#918=ORIENTED_EDGE('',*,*,#638,.F.);
#919=ORIENTED_EDGE('',*,*,#630,.F.);
#920=ORIENTED_EDGE('',*,*,#636,.T.);
#921=ORIENTED_EDGE('',*,*,#635,.F.);
#922=ORIENTED_EDGE('',*,*,#637,.F.);
#923=ORIENTED_EDGE('',*,*,#631,.F.);
#924=ORIENTED_EDGE('',*,*,#638,.T.);
#925=PLANE('',#1044);
#926=PLANE('',#1051);
#927=PLANE('',#1055);
#928=PLANE('',#1057);
#929=PLANE('',#1058);
#930=PLANE('',#1060);
#931=PLANE('',#1063);
#932=PLANE('',#1071);
#933=PLANE('',#1072);
#934=PLANE('',#1073);
#935=PLANE('',#1074);
#936=PLANE('',#1075);
#937=PLANE('',#1076);
#938=PLANE('',#1077);
#939=PLANE('',#1078);
#940=PLANE('',#1079);
#941=PLANE('',#1080);
#942=PLANE('',#1081);
#943=PLANE('',#1082);
#944=PLANE('',#1083);
#945=PLANE('',#1084);
#946=PLANE('',#1085);
#947=PLANE('',#1086);
#948=PLANE('',#1087);
#949=PLANE('',#1088);
#950=PLANE('',#1089);
#951=PLANE('',#1090);
#952=PLANE('',#1091);
#953=PLANE('',#1096);
#954=PLANE('',#1098);
#955=PLANE('',#1100);
#956=PLANE('',#1102);
#957=PLANE('',#1103);
#958=PLANE('',#1105);
#959=PLANE('',#1107);
#960=PLANE('',#1108);
#961=PLANE('',#1110);
#962=PLANE('',#1114);
#963=PLANE('',#1115);
#964=PLANE('',#1116);
#965=PLANE('',#1117);
#966=PLANE('',#1118);
#967=PLANE('',#1119);
#968=ADVANCED_FACE('',(#31),#925,.T.);
#969=ADVANCED_FACE('',(#32),#22,.F.);
#970=ADVANCED_FACE('',(#33),#23,.F.);
#971=ADVANCED_FACE('',(#34),#926,.T.);
#972=ADVANCED_FACE('',(#35),#24,.F.);
#973=ADVANCED_FACE('',(#36),#927,.T.);
#974=ADVANCED_FACE('',(#37),#928,.F.);
#975=ADVANCED_FACE('',(#38),#929,.T.);
#976=ADVANCED_FACE('',(#39),#930,.F.);
#977=ADVANCED_FACE('',(#40),#25,.F.);
#978=ADVANCED_FACE('',(#41),#931,.T.);
#979=ADVANCED_FACE('',(#42),#26,.F.);
#980=ADVANCED_FACE('',(#43),#27,.F.);
#981=ADVANCED_FACE('',(#44,#17,#18),#932,.F.);
#982=ADVANCED_FACE('',(#45,#19),#933,.T.);
#983=ADVANCED_FACE('',(#46),#934,.F.);
#984=ADVANCED_FACE('',(#47),#935,.F.);
#985=ADVANCED_FACE('',(#48),#936,.F.);
#986=ADVANCED_FACE('',(#49),#937,.F.);
#987=ADVANCED_FACE('',(#50),#938,.F.);
#988=ADVANCED_FACE('',(#51),#939,.F.);
#989=ADVANCED_FACE('',(#52),#940,.F.);
#990=ADVANCED_FACE('',(#53),#941,.F.);
#991=ADVANCED_FACE('',(#54),#942,.F.);
#992=ADVANCED_FACE('',(#55),#943,.F.);
#993=ADVANCED_FACE('',(#56),#944,.T.);
#994=ADVANCED_FACE('',(#57),#945,.F.);
#995=ADVANCED_FACE('',(#58),#946,.F.);
#996=ADVANCED_FACE('',(#59),#947,.F.);
#997=ADVANCED_FACE('',(#60),#948,.F.);
#998=ADVANCED_FACE('',(#61),#949,.F.);
#999=ADVANCED_FACE('',(#62),#950,.F.);
#1000=ADVANCED_FACE('',(#63),#951,.F.);
#1001=ADVANCED_FACE('',(#64),#952,.F.);
#1002=ADVANCED_FACE('',(#65),#28,.T.);
#1003=ADVANCED_FACE('',(#66),#29,.T.);
#1004=ADVANCED_FACE('',(#67),#953,.F.);
#1005=ADVANCED_FACE('',(#68),#954,.F.);
#1006=ADVANCED_FACE('',(#69),#955,.T.);
#1007=ADVANCED_FACE('',(#70,#20),#956,.T.);
#1008=ADVANCED_FACE('',(#71),#957,.T.);
#1009=ADVANCED_FACE('',(#72),#958,.F.);
#1010=ADVANCED_FACE('',(#73),#959,.T.);
#1011=ADVANCED_FACE('',(#74),#960,.T.);
#1012=ADVANCED_FACE('',(#75),#961,.T.);
#1013=ADVANCED_FACE('',(#76,#21),#30,.T.);
#1014=ADVANCED_FACE('',(#77),#962,.F.);
#1015=ADVANCED_FACE('',(#78),#963,.T.);
#1016=ADVANCED_FACE('',(#79),#964,.F.);
#1017=ADVANCED_FACE('',(#80),#965,.F.);
#1018=ADVANCED_FACE('',(#81),#966,.F.);
#1019=ADVANCED_FACE('',(#82),#967,.F.);
#1020=CLOSED_SHELL('',(#968,#969,#970,#971,#972,#973,#974,#975,#976,#977,
#978,#979,#980,#981,#982,#983,#984,#985,#986,#987,#988,#989,#990,#991,#992,
#993,#994,#995,#996,#997,#998,#999,#1000,#1001,#1002,#1003,#1004,#1005,
#1006,#1007,#1008,#1009,#1010,#1011,#1012,#1013,#1014));
#1021=CLOSED_SHELL('',(#1015,#1016,#1017,#1018,#1019));
#1022=DERIVED_UNIT_ELEMENT(#1025,1.);
#1023=DERIVED_UNIT_ELEMENT(#1688,-3.);
#1024=DIMENSIONAL_EXPONENTS(0.,1.,0.,0.,0.,0.,0.);
#1025=(
CONVERSION_BASED_UNIT('gram',#1027)
MASS_UNIT()
NAMED_UNIT(#1024)
);
#1026=(
MASS_UNIT()
NAMED_UNIT(*)
SI_UNIT(.KILO.,.GRAM.)
);
#1027=MASS_MEASURE_WITH_UNIT(MASS_MEASURE(0.001),#1026);
#1028=DERIVED_UNIT((#1022,#1023));
#1029=MEASURE_REPRESENTATION_ITEM('density measure',
POSITIVE_RATIO_MEASURE(1.),#1028);
#1030=PROPERTY_DEFINITION_REPRESENTATION(#1035,#1032);
#1031=PROPERTY_DEFINITION_REPRESENTATION(#1036,#1033);
#1032=REPRESENTATION('material name',(#1034),#1685);
#1033=REPRESENTATION('density',(#1029),#1685);
#1034=DESCRIPTIVE_REPRESENTATION_ITEM('Generisch','Generisch');
#1035=PROPERTY_DEFINITION('material property','material name',#1695);
#1036=PROPERTY_DEFINITION('material property','density of part',#1695);
#1037=DATE_TIME_ROLE('creation_date');
#1038=APPLIED_DATE_AND_TIME_ASSIGNMENT(#1039,#1037,(#1695));
#1039=DATE_AND_TIME(#1040,#1041);
#1040=CALENDAR_DATE(2025,19,4);
#1041=LOCAL_TIME(0,0,0.,#1042);
#1042=COORDINATED_UNIVERSAL_TIME_OFFSET(0,0,.BEHIND.);
#1043=AXIS2_PLACEMENT_3D('',#1393,#1120,#1121);
#1044=AXIS2_PLACEMENT_3D('',#1394,#1122,#1123);
#1045=AXIS2_PLACEMENT_3D('',#1399,#1125,#1126);
#1046=AXIS2_PLACEMENT_3D('',#1402,#1128,#1129);
#1047=AXIS2_PLACEMENT_3D('',#1403,#1130,#1131);
#1048=AXIS2_PLACEMENT_3D('',#1407,#1133,#1134);
#1049=AXIS2_PLACEMENT_3D('',#1409,#1136,#1137);
#1050=AXIS2_PLACEMENT_3D('',#1413,#1139,#1140);
#1051=AXIS2_PLACEMENT_3D('',#1415,#1142,#1143);
#1052=AXIS2_PLACEMENT_3D('',#1441,#1157,#1158);
#1053=AXIS2_PLACEMENT_3D('',#1445,#1160,#1161);
#1054=AXIS2_PLACEMENT_3D('',#1446,#1162,#1163);
#1055=AXIS2_PLACEMENT_3D('',#1447,#1164,#1165);
#1056=AXIS2_PLACEMENT_3D('',#1450,#1167,#1168);
#1057=AXIS2_PLACEMENT_3D('',#1451,#1169,#1170);
#1058=AXIS2_PLACEMENT_3D('',#1463,#1177,#1178);
#1059=AXIS2_PLACEMENT_3D('',#1465,#1179,#1180);
#1060=AXIS2_PLACEMENT_3D('',#1467,#1182,#1183);
#1061=AXIS2_PLACEMENT_3D('',#1479,#1190,#1191);
#1062=AXIS2_PLACEMENT_3D('',#1482,#1193,#1194);
#1063=AXIS2_PLACEMENT_3D('',#1483,#1195,#1196);
#1064=AXIS2_PLACEMENT_3D('',#1486,#1198,#1199);
#1065=AXIS2_PLACEMENT_3D('',#1487,#1200,#1201);
#1066=AXIS2_PLACEMENT_3D('',#1489,#1202,#1203);
#1067=AXIS2_PLACEMENT_3D('',#1492,#1205,#1206);
#1068=AXIS2_PLACEMENT_3D('',#1493,#1207,#1208);
#1069=AXIS2_PLACEMENT_3D('',#1495,#1209,#1210);
#1070=AXIS2_PLACEMENT_3D('',#1498,#1212,#1213);
#1071=AXIS2_PLACEMENT_3D('',#1499,#1214,#1215);
#1072=AXIS2_PLACEMENT_3D('',#1510,#1222,#1223);
#1073=AXIS2_PLACEMENT_3D('',#1519,#1228,#1229);
#1074=AXIS2_PLACEMENT_3D('',#1528,#1234,#1235);
#1075=AXIS2_PLACEMENT_3D('',#1537,#1240,#1241);
#1076=AXIS2_PLACEMENT_3D('',#1543,#1245,#1246);
#1077=AXIS2_PLACEMENT_3D('',#1549,#1250,#1251);
#1078=AXIS2_PLACEMENT_3D('',#1568,#1262,#1263);
#1079=AXIS2_PLACEMENT_3D('',#1570,#1265,#1266);
#1080=AXIS2_PLACEMENT_3D('',#1572,#1268,#1269);
#1081=AXIS2_PLACEMENT_3D('',#1576,#1272,#1273);
#1082=AXIS2_PLACEMENT_3D('',#1580,#1276,#1277);
#1083=AXIS2_PLACEMENT_3D('',#1586,#1281,#1282);
#1084=AXIS2_PLACEMENT_3D('',#1609,#1295,#1296);
#1085=AXIS2_PLACEMENT_3D('',#1612,#1299,#1300);
#1086=AXIS2_PLACEMENT_3D('',#1616,#1304,#1305);
#1087=AXIS2_PLACEMENT_3D('',#1618,#1307,#1308);
#1088=AXIS2_PLACEMENT_3D('',#1619,#1309,#1310);
#1089=AXIS2_PLACEMENT_3D('',#1623,#1313,#1314);
#1090=AXIS2_PLACEMENT_3D('',#1627,#1317,#1318);
#1091=AXIS2_PLACEMENT_3D('',#1629,#1320,#1321);
#1092=AXIS2_PLACEMENT_3D('',#1630,#1322,#1323);
#1093=AXIS2_PLACEMENT_3D('',#1631,#1324,#1325);
#1094=AXIS2_PLACEMENT_3D('',#1632,#1326,#1327);
#1095=AXIS2_PLACEMENT_3D('',#1633,#1328,#1329);
#1096=AXIS2_PLACEMENT_3D('',#1634,#1330,#1331);
#1097=AXIS2_PLACEMENT_3D('',#1637,#1333,#1334);
#1098=AXIS2_PLACEMENT_3D('',#1638,#1335,#1336);
#1099=AXIS2_PLACEMENT_3D('',#1641,#1338,#1339);
#1100=AXIS2_PLACEMENT_3D('',#1642,#1340,#1341);
#1101=AXIS2_PLACEMENT_3D('',#1643,#1342,#1343);
#1102=AXIS2_PLACEMENT_3D('',#1644,#1344,#1345);
#1103=AXIS2_PLACEMENT_3D('',#1648,#1348,#1349);
#1104=AXIS2_PLACEMENT_3D('',#1649,#1350,#1351);
#1105=AXIS2_PLACEMENT_3D('',#1650,#1352,#1353);
#1106=AXIS2_PLACEMENT_3D('',#1651,#1354,#1355);
#1107=AXIS2_PLACEMENT_3D('',#1652,#1356,#1357);
#1108=AXIS2_PLACEMENT_3D('',#1656,#1360,#1361);
#1109=AXIS2_PLACEMENT_3D('',#1657,#1362,#1363);
#1110=AXIS2_PLACEMENT_3D('',#1658,#1364,#1365);
#1111=AXIS2_PLACEMENT_3D('',#1659,#1366,#1367);
#1112=AXIS2_PLACEMENT_3D('',#1660,#1368,#1369);
#1113=AXIS2_PLACEMENT_3D('',#1661,#1370,#1371);
#1114=AXIS2_PLACEMENT_3D('',#1662,#1372,#1373);
#1115=AXIS2_PLACEMENT_3D('',#1663,#1374,#1375);
#1116=AXIS2_PLACEMENT_3D('',#1670,#1379,#1380);
#1117=AXIS2_PLACEMENT_3D('',#1677,#1384,#1385);
#1118=AXIS2_PLACEMENT_3D('',#1680,#1388,#1389);
#1119=AXIS2_PLACEMENT_3D('',#1682,#1391,#1392);
#1120=DIRECTION('axis',(0.,0.,1.));
#1121=DIRECTION('refdir',(1.,0.,0.));
#1122=DIRECTION('center_axis',(1.,0.,0.));
#1123=DIRECTION('ref_axis',(0.,0.,-1.));
#1124=DIRECTION('',(0.,-1.,-1.61745803660971E-17));
#1125=DIRECTION('center_axis',(-1.,0.,0.));
#1126=DIRECTION('ref_axis',(0.,0.,-1.));
#1127=DIRECTION('',(0.,-1.,-1.61745803660971E-17));
#1128=DIRECTION('center_axis',(1.,0.,0.));
#1129=DIRECTION('ref_axis',(0.,1.,1.83697019872103E-16));
#1130=DIRECTION('center_axis',(-1.,0.,0.));
#1131=DIRECTION('ref_axis',(0.,1.22464679914735E-16,1.));
#1132=DIRECTION('',(-1.,0.,0.));
#1133=DIRECTION('center_axis',(-1.,0.,0.));
#1134=DIRECTION('ref_axis',(0.,0.,-1.));
#1135=DIRECTION('',(1.,0.,0.));
#1136=DIRECTION('center_axis',(-1.,0.,0.));
#1137=DIRECTION('ref_axis',(0.,1.,1.83697019872103E-16));
#1138=DIRECTION('',(-1.,0.,0.));
#1139=DIRECTION('center_axis',(1.,0.,0.));
#1140=DIRECTION('ref_axis',(0.,1.,1.83697019872103E-16));
#1141=DIRECTION('',(-1.,0.,0.));
#1142=DIRECTION('center_axis',(0.,1.61745803660971E-17,-1.));
#1143=DIRECTION('ref_axis',(0.,1.,1.61745803660971E-17));
#1144=DIRECTION('',(0.,-1.,2.42618705491457E-17));
#1145=DIRECTION('',(1.,0.,0.));
#1146=DIRECTION('',(0.,1.,0.));
#1147=DIRECTION('',(1.,0.,0.));
#1148=DIRECTION('',(0.,1.,1.61745803660971E-17));
#1149=DIRECTION('',(1.,0.,0.));
#1150=DIRECTION('',(0.,1.,0.));
#1151=DIRECTION('',(1.,0.,0.));
#1152=DIRECTION('',(0.,-1.,0.));
#1153=DIRECTION('',(-1.,0.,0.));
#1154=DIRECTION('',(0.,-1.,-1.15532716900694E-18));
#1155=DIRECTION('',(-1.,0.,0.));
#1156=DIRECTION('',(0.,-1.,2.42618705491457E-17));
#1157=DIRECTION('center_axis',(1.,0.,0.));
#1158=DIRECTION('ref_axis',(0.,0.,1.));
#1159=DIRECTION('',(-1.,0.,0.));
#1160=DIRECTION('center_axis',(1.,0.,0.));
#1161=DIRECTION('ref_axis',(0.,0.,1.));
#1162=DIRECTION('center_axis',(1.,0.,0.));
#1163=DIRECTION('ref_axis',(0.,0.,1.));
#1164=DIRECTION('center_axis',(-1.,0.,0.));
#1165=DIRECTION('ref_axis',(0.,0.,1.));
#1166=DIRECTION('',(0.,1.,1.61745803660971E-17));
#1167=DIRECTION('center_axis',(-1.,0.,0.));
#1168=DIRECTION('ref_axis',(0.,-1.,0.));
#1169=DIRECTION('center_axis',(1.,0.,0.));
#1170=DIRECTION('ref_axis',(0.,0.,-1.));
#1171=DIRECTION('',(0.,0.,1.));
#1172=DIRECTION('',(0.,0.707106781186548,0.707106781186548));
#1173=DIRECTION('',(0.,1.,0.));
#1174=DIRECTION('',(0.,0.707106781186548,-0.707106781186548));
#1175=DIRECTION('',(0.,0.,-1.));
#1176=DIRECTION('',(0.,1.,0.));
#1177=DIRECTION('center_axis',(-1.,0.,0.));
#1178=DIRECTION('ref_axis',(0.,0.,1.));
#1179=DIRECTION('center_axis',(-1.,0.,0.));
#1180=DIRECTION('ref_axis',(0.,-1.,0.));
#1181=DIRECTION('',(0.,-1.,8.08729018304856E-18));
#1182=DIRECTION('center_axis',(-1.,0.,0.));
#1183=DIRECTION('ref_axis',(0.,0.,1.));
#1184=DIRECTION('',(0.,-1.,8.08729018304856E-18));
#1185=DIRECTION('',(0.,0.,1.));
#1186=DIRECTION('',(0.,-0.707106781186548,0.707106781186548));
#1187=DIRECTION('',(0.,-1.,0.));
#1188=DIRECTION('',(0.,-0.707106781186548,-0.707106781186548));
#1189=DIRECTION('',(0.,0.,-1.));
#1190=DIRECTION('center_axis',(1.,0.,0.));
#1191=DIRECTION('ref_axis',(0.,-1.,0.));
#1192=DIRECTION('',(1.,0.,0.));
#1193=DIRECTION('center_axis',(-1.,0.,0.));
#1194=DIRECTION('ref_axis',(0.,-1.,0.));
#1195=DIRECTION('center_axis',(1.,0.,0.));
#1196=DIRECTION('ref_axis',(0.,0.,-1.));
#1197=DIRECTION('',(0.,1.,0.));
#1198=DIRECTION('center_axis',(1.,0.,0.));
#1199=DIRECTION('ref_axis',(0.,1.,0.));
#1200=DIRECTION('center_axis',(0.,-1.,-6.83214169000096E-16));
#1201=DIRECTION('ref_axis',(1.,0.,0.));
#1202=DIRECTION('center_axis',(0.,-1.,-6.83720066269711E-16));
#1203=DIRECTION('ref_axis',(1.,0.,0.));
#1204=DIRECTION('',(0.,-1.,-6.83214169000096E-16));
#1205=DIRECTION('center_axis',(0.,1.,0.));
#1206=DIRECTION('ref_axis',(1.,0.,0.));
#1207=DIRECTION('center_axis',(0.,-1.,-6.83214169000096E-16));
#1208=DIRECTION('ref_axis',(1.,0.,0.));
#1209=DIRECTION('center_axis',(0.,-1.,-6.83720066269711E-16));
#1210=DIRECTION('ref_axis',(1.,0.,0.));
#1211=DIRECTION('',(0.,-1.,-6.83214169000096E-16));
#1212=DIRECTION('center_axis',(0.,1.,0.));
#1213=DIRECTION('ref_axis',(1.,0.,0.));
#1214=DIRECTION('center_axis',(0.,1.,0.));
#1215=DIRECTION('ref_axis',(0.,0.,-1.));
#1216=DIRECTION('',(-1.,0.,0.));
#1217=DIRECTION('',(0.,0.,1.));
#1218=DIRECTION('',(1.,0.,0.));
#1219=DIRECTION('',(0.,0.,-1.));
#1220=DIRECTION('',(1.,0.,0.));
#1221=DIRECTION('',(-1.,0.,0.));
#1222=DIRECTION('center_axis',(0.,1.,6.83720066269711E-16));
#1223=DIRECTION('ref_axis',(0.,6.83720066269711E-16,-1.));
#1224=DIRECTION('',(0.,-6.83720066269711E-16,1.));
#1225=DIRECTION('',(-1.,0.,0.));
#1226=DIRECTION('',(0.,6.83720066269711E-16,-1.));
#1227=DIRECTION('',(-1.,0.,0.));
#1228=DIRECTION('center_axis',(0.,0.258819045102521,-0.965925826289068));
#1229=DIRECTION('ref_axis',(-1.,0.,0.));
#1230=DIRECTION('',(-1.,0.,0.));
#1231=DIRECTION('',(0.,-0.965925826289068,-0.258819045102521));
#1232=DIRECTION('',(1.,-1.0723930924262E-16,-2.87346863084316E-17));
#1233=DIRECTION('',(0.,0.965925826289068,0.258819045102521));
#1234=DIRECTION('center_axis',(0.,-0.965925826289068,-0.258819045102521));
#1235=DIRECTION('ref_axis',(-1.,0.,0.));
#1236=DIRECTION('',(-1.,0.,0.));
#1237=DIRECTION('',(0.,0.258819045102521,-0.965925826289068));
#1238=DIRECTION('',(-1.,0.,0.));
#1239=DIRECTION('',(0.,0.258819045102521,-0.965925826289068));
#1240=DIRECTION('center_axis',(1.11022302462516E-16,0.965925826289068,0.258819045102521));
#1241=DIRECTION('ref_axis',(1.,-1.0723930924262E-16,-2.87346863084316E-17));
#1242=DIRECTION('',(-1.,0.,0.));
#1243=DIRECTION('',(0.,0.258819045102521,-0.965925826289068));
#1244=DIRECTION('',(0.,0.258819045102521,-0.965925826289068));
#1245=DIRECTION('center_axis',(0.,0.258819045102521,-0.965925826289068));
#1246=DIRECTION('ref_axis',(-1.,0.,0.));
#1247=DIRECTION('',(1.,0.,0.));
#1248=DIRECTION('',(0.,0.965925826289068,0.258819045102521));
#1249=DIRECTION('',(0.,-0.965925826289068,-0.258819045102521));
#1250=DIRECTION('center_axis',(0.,2.41352831440251E-16,1.));
#1251=DIRECTION('ref_axis',(0.,-1.,2.41352831440251E-16));
#1252=DIRECTION('',(0.,1.,-2.41352831440251E-16));
#1253=DIRECTION('',(0.,-1.,2.41352831440251E-16));
#1254=DIRECTION('',(1.,0.,0.));
#1255=DIRECTION('',(0.,1.,-2.41352831440251E-16));
#1256=DIRECTION('',(0.,-1.,2.41352831440251E-16));
#1257=DIRECTION('',(0.,1.,-2.41352831440251E-16));
#1258=DIRECTION('',(0.,-1.,2.41352831440251E-16));
#1259=DIRECTION('',(0.,1.,-2.41352831440251E-16));
#1260=DIRECTION('',(0.,-1.,2.41352831440251E-16));
#1261=DIRECTION('',(1.,0.,0.));
#1262=DIRECTION('center_axis',(1.,0.,0.));
#1263=DIRECTION('ref_axis',(0.,0.,-1.));
#1264=DIRECTION('',(0.,0.707106781186548,-0.707106781186548));
#1265=DIRECTION('center_axis',(-1.,0.,0.));
#1266=DIRECTION('ref_axis',(0.,0.,1.));
#1267=DIRECTION('',(0.,-0.707106781186548,0.707106781186548));
#1268=DIRECTION('center_axis',(-1.,0.,0.));
#1269=DIRECTION('ref_axis',(0.,0.,1.));
#1270=DIRECTION('',(0.,-0.707106781186548,-0.707106781186548));
#1271=DIRECTION('',(0.,0.,1.));
#1272=DIRECTION('center_axis',(1.,0.,0.));
#1273=DIRECTION('ref_axis',(0.,0.,-1.));
#1274=DIRECTION('',(0.,0.707106781186548,0.707106781186548));
#1275=DIRECTION('',(0.,0.,-1.));
#1276=DIRECTION('center_axis',(-1.,0.,0.));
#1277=DIRECTION('ref_axis',(0.,0.,1.));
#1278=DIRECTION('',(0.,0.707106781186548,-0.707106781186548));
#1279=DIRECTION('',(0.,1.,0.));
#1280=DIRECTION('',(0.,0.707106781186548,0.707106781186548));
#1281=DIRECTION('center_axis',(0.,1.61745803660971E-17,-1.));
#1282=DIRECTION('ref_axis',(0.,1.,1.61745803660971E-17));
#1283=DIRECTION('',(-1.,0.,0.));
#1284=DIRECTION('',(0.,-1.,-1.15532716900694E-18));
#1285=DIRECTION('',(-1.,0.,0.));
#1286=DIRECTION('',(0.,-1.,-1.15532716900694E-18));
#1287=DIRECTION('',(-1.,0.,0.));
#1288=DIRECTION('',(0.,-1.,0.));
#1289=DIRECTION('',(-1.,0.,0.));
#1290=DIRECTION('',(0.,-1.,0.));
#1291=DIRECTION('',(0.,-1.,0.));
#1292=DIRECTION('',(-1.,0.,0.));
#1293=DIRECTION('',(0.,-1.,0.));
#1294=DIRECTION('',(-1.,0.,0.));
#1295=DIRECTION('center_axis',(0.,-0.707106781186548,0.707106781186548));
#1296=DIRECTION('ref_axis',(0.,0.707106781186548,0.707106781186548));
#1297=DIRECTION('',(-1.,0.,0.));
#1298=DIRECTION('',(-1.,0.,0.));
#1299=DIRECTION('center_axis',(0.,-1.,0.));
#1300=DIRECTION('ref_axis',(0.,0.,1.));
#1301=DIRECTION('',(0.,0.,1.));
#1302=DIRECTION('',(1.,0.,0.));
#1303=DIRECTION('',(0.,0.,-1.));
#1304=DIRECTION('center_axis',(0.,0.707106781186548,0.707106781186548));
#1305=DIRECTION('ref_axis',(0.,0.707106781186548,-0.707106781186548));
#1306=DIRECTION('',(-1.,0.,0.));
#1307=DIRECTION('center_axis',(0.,0.,1.));
#1308=DIRECTION('ref_axis',(0.,1.,0.));
#1309=DIRECTION('center_axis',(0.,-0.707106781186548,0.707106781186548));
#1310=DIRECTION('ref_axis',(0.,-0.707106781186548,-0.707106781186548));
#1311=DIRECTION('',(1.,0.,0.));
#1312=DIRECTION('',(0.,-0.707106781186548,-0.707106781186548));
#1313=DIRECTION('center_axis',(0.,0.,1.));
#1314=DIRECTION('ref_axis',(0.,-1.,0.));
#1315=DIRECTION('',(1.,0.,0.));
#1316=DIRECTION('',(0.,-1.,0.));
#1317=DIRECTION('center_axis',(0.,0.707106781186548,0.707106781186548));
#1318=DIRECTION('ref_axis',(0.,-0.707106781186548,0.707106781186548));
#1319=DIRECTION('',(0.,-0.707106781186548,0.707106781186548));
#1320=DIRECTION('center_axis',(1.,0.,0.));
#1321=DIRECTION('ref_axis',(0.,0.,-1.));
#1322=DIRECTION('center_axis',(1.,0.,0.));
#1323=DIRECTION('ref_axis',(0.,1.,0.));
#1324=DIRECTION('center_axis',(-1.,0.,0.));
#1325=DIRECTION('ref_axis',(0.,-1.,0.));
#1326=DIRECTION('center_axis',(-1.,0.,0.));
#1327=DIRECTION('ref_axis',(0.,-1.,0.));
#1328=DIRECTION('center_axis',(1.,0.,0.));
#1329=DIRECTION('ref_axis',(0.,-1.,0.));
#1330=DIRECTION('center_axis',(-1.,0.,0.));
#1331=DIRECTION('ref_axis',(0.,0.,1.));
#1332=DIRECTION('',(0.,0.965925826289068,0.258819045102521));
#1333=DIRECTION('center_axis',(-1.,0.,0.));
#1334=DIRECTION('ref_axis',(0.,-1.,-2.31065433801387E-18));
#1335=DIRECTION('center_axis',(-1.,0.,0.));
#1336=DIRECTION('ref_axis',(0.,0.,1.));
#1337=DIRECTION('',(0.,6.83720066269711E-16,-1.));
#1338=DIRECTION('center_axis',(-1.,0.,0.));
#1339=DIRECTION('ref_axis',(0.,-1.,-2.31065433801387E-18));
#1340=DIRECTION('center_axis',(-1.,0.,0.));
#1341=DIRECTION('ref_axis',(0.,0.,1.));
#1342=DIRECTION('center_axis',(-1.,0.,0.));
#1343=DIRECTION('ref_axis',(0.,-1.,-2.31065433801387E-18));
#1344=DIRECTION('center_axis',(0.,1.,6.83720066269711E-16));
#1345=DIRECTION('ref_axis',(0.,6.83720066269711E-16,-1.));
#1346=DIRECTION('',(0.,-6.83720066269711E-16,1.));
#1347=DIRECTION('',(-1.,0.,0.));
#1348=DIRECTION('center_axis',(-1.,0.,0.));
#1349=DIRECTION('ref_axis',(0.,0.,1.));
#1350=DIRECTION('center_axis',(-1.,0.,0.));
#1351=DIRECTION('ref_axis',(0.,0.484768112139234,0.874642714171314));
#1352=DIRECTION('center_axis',(-1.,0.,0.));
#1353=DIRECTION('ref_axis',(0.,0.,1.));
#1354=DIRECTION('center_axis',(-1.,0.,0.));
#1355=DIRECTION('ref_axis',(0.,0.484768112139234,0.874642714171314));
#1356=DIRECTION('center_axis',(0.,-0.258819045102521,0.965925826289068));
#1357=DIRECTION('ref_axis',(0.,0.965925826289068,0.258819045102521));
#1358=DIRECTION('',(-1.,0.,0.));
#1359=DIRECTION('',(0.,-0.965925826289068,-0.258819045102521));
#1360=DIRECTION('center_axis',(-1.,0.,0.));
#1361=DIRECTION('ref_axis',(0.,0.,1.));
#1362=DIRECTION('center_axis',(-1.,0.,0.));
#1363=DIRECTION('ref_axis',(0.,-1.,0.));
#1364=DIRECTION('center_axis',(-1.,0.,0.));
#1365=DIRECTION('ref_axis',(0.,0.,1.));
#1366=DIRECTION('center_axis',(-1.,0.,0.));
#1367=DIRECTION('ref_axis',(0.,-1.,0.));
#1368=DIRECTION('center_axis',(-1.,0.,0.));
#1369=DIRECTION('ref_axis',(0.,-1.,0.));
#1370=DIRECTION('center_axis',(-1.,0.,0.));
#1371=DIRECTION('ref_axis',(0.,-1.,0.));
#1372=DIRECTION('center_axis',(-1.,0.,0.));
#1373=DIRECTION('ref_axis',(0.,0.,1.));
#1374=DIRECTION('center_axis',(0.,1.,6.83720066269711E-16));
#1375=DIRECTION('ref_axis',(0.,6.83720066269711E-16,-1.));
#1376=DIRECTION('',(0.755912569903064,-4.47612779604335E-16,0.654672579739327));
#1377=DIRECTION('',(0.755912569903075,4.47612779604326E-16,-0.654672579739314));
#1378=DIRECTION('',(-1.,9.4885219996359E-33,-1.38777878078145E-17));
#1379=DIRECTION('center_axis',(0.,1.,0.));
#1380=DIRECTION('ref_axis',(0.,0.,-1.));
#1381=DIRECTION('',(-0.755912569903064,0.,-0.654672579739327));
#1382=DIRECTION('',(1.,0.,1.38777878078145E-17));
#1383=DIRECTION('',(-0.755912569903075,0.,0.654672579739314));
#1384=DIRECTION('center_axis',(-1.38777878078145E-17,-6.83214169000096E-16,
1.));
#1385=DIRECTION('ref_axis',(-1.,9.4885219996359E-33,-1.38777878078145E-17));
#1386=DIRECTION('',(0.,-1.,-6.83214169000096E-16));
#1387=DIRECTION('',(0.,-1.,-6.83214169000096E-16));
#1388=DIRECTION('center_axis',(0.654672579739327,5.16450178283049E-16,-0.755912569903064));
#1389=DIRECTION('ref_axis',(0.755912569903064,-4.47612779604335E-16,0.654672579739327));
#1390=DIRECTION('',(0.,-1.,-6.83214169000096E-16));
#1391=DIRECTION('center_axis',(-0.654672579739314,5.16450178283057E-16,
-0.755912569903075));
#1392=DIRECTION('ref_axis',(0.755912569903075,4.47612779604326E-16,-0.654672579739314));
#1393=CARTESIAN_POINT('',(0.,0.,0.));
#1394=CARTESIAN_POINT('Origin',(-194.5,0.,0.));
#1395=CARTESIAN_POINT('',(-194.5,11.25,6.67201440101506E-16));
#1396=CARTESIAN_POINT('',(-194.5,3.5,2.14313189850787E-16));
#1397=CARTESIAN_POINT('',(-194.5,-15.,2.42618705491457E-16));
#1398=CARTESIAN_POINT('',(-194.5,-11.25,3.03273381864321E-16));
#1399=CARTESIAN_POINT('Origin',(-194.5,0.,0.));
#1400=CARTESIAN_POINT('',(-194.5,-3.5,-6.42939569552361E-16));
#1401=CARTESIAN_POINT('',(-194.5,-15.,2.42618705491457E-16));
#1402=CARTESIAN_POINT('Origin',(-194.5,0.,0.));
#1403=CARTESIAN_POINT('Origin',(-192.,0.,0.));
#1404=CARTESIAN_POINT('',(-192.,11.25,1.51636690932161E-16));
#1405=CARTESIAN_POINT('',(-192.,11.25,6.67201440101506E-16));
#1406=CARTESIAN_POINT('',(-192.,-11.25,3.03273381864321E-16));
#1407=CARTESIAN_POINT('Origin',(-192.,0.,0.));
#1408=CARTESIAN_POINT('',(-192.,-11.25,3.03273381864321E-16));
#1409=CARTESIAN_POINT('Origin',(-192.,0.,0.));
#1410=CARTESIAN_POINT('',(-196.5,-3.5,-6.42939569552361E-16));
#1411=CARTESIAN_POINT('',(-192.,-3.5,-6.42939569552361E-16));
#1412=CARTESIAN_POINT('',(-196.5,3.5,2.14313189850787E-16));
#1413=CARTESIAN_POINT('Origin',(-196.5,0.,0.));
#1414=CARTESIAN_POINT('',(-192.,3.5,2.14313189850787E-16));
#1415=CARTESIAN_POINT('Origin',(0.,-30.,0.));
#1416=CARTESIAN_POINT('',(-192.,-23.,0.));
#1417=CARTESIAN_POINT('',(-192.,-3.5,-6.42939569552361E-16));
#1418=CARTESIAN_POINT('',(0.,-23.,0.));
#1419=CARTESIAN_POINT('',(0.,-23.,1.1322206256268E-16));
#1420=CARTESIAN_POINT('',(0.,-11.25,0.));
#1421=CARTESIAN_POINT('',(0.,-30.,0.));
#1422=CARTESIAN_POINT('',(2.5,-11.25,3.03273381864321E-16));
#1423=CARTESIAN_POINT('',(0.,-11.25,3.03273381864321E-16));
#1424=CARTESIAN_POINT('',(2.5,-3.5,0.));
#1425=CARTESIAN_POINT('',(2.5,-15.,2.42618705491457E-16));
#1426=CARTESIAN_POINT('',(4.5,-3.5,0.));
#1427=CARTESIAN_POINT('',(0.,-3.5,0.));
#1428=CARTESIAN_POINT('',(4.5,-30.,0.));
#1429=CARTESIAN_POINT('',(4.5,-30.,0.));
#1430=CARTESIAN_POINT('',(-46.,-30.,0.));
#1431=CARTESIAN_POINT('',(0.,-30.,0.));
#1432=CARTESIAN_POINT('',(-46.,-35.,0.));
#1433=CARTESIAN_POINT('',(-46.,35.8217464520362,0.));
#1434=CARTESIAN_POINT('',(-146.,-35.,-8.08729018304855E-17));
#1435=CARTESIAN_POINT('',(-46.,-35.,0.));
#1436=CARTESIAN_POINT('',(-146.,-30.,0.));
#1437=CARTESIAN_POINT('',(-146.,35.,0.));
#1438=CARTESIAN_POINT('',(-196.5,-30.,0.));
#1439=CARTESIAN_POINT('',(-146.,-30.,0.));
#1440=CARTESIAN_POINT('',(-196.5,-3.5,-6.42939569552361E-16));
#1441=CARTESIAN_POINT('Origin',(0.,0.,0.));
#1442=CARTESIAN_POINT('',(2.5,11.25,6.67201440101506E-16));
#1443=CARTESIAN_POINT('',(0.,11.25,0.));
#1444=CARTESIAN_POINT('',(0.,11.25,6.67201440101506E-16));
#1445=CARTESIAN_POINT('Origin',(2.5,0.,0.));
#1446=CARTESIAN_POINT('Origin',(0.,0.,0.));
#1447=CARTESIAN_POINT('Origin',(2.5,0.,0.));
#1448=CARTESIAN_POINT('',(2.5,3.5,0.));
#1449=CARTESIAN_POINT('',(2.5,-15.,2.42618705491457E-16));
#1450=CARTESIAN_POINT('Origin',(2.5,0.,0.));
#1451=CARTESIAN_POINT('Origin',(0.,0.,15.));
#1452=CARTESIAN_POINT('',(0.,-23.,17.));
#1453=CARTESIAN_POINT('',(0.,-23.,7.5));
#1454=CARTESIAN_POINT('',(0.,-17.,23.));
#1455=CARTESIAN_POINT('',(0.,-17.75,22.25));
#1456=CARTESIAN_POINT('',(0.,17.,23.));
#1457=CARTESIAN_POINT('',(0.,-8.5,23.));
#1458=CARTESIAN_POINT('',(0.,23.,17.));
#1459=CARTESIAN_POINT('',(0.,14.75,25.25));
#1460=CARTESIAN_POINT('',(0.,23.,0.));
#1461=CARTESIAN_POINT('',(0.,23.,16.));
#1462=CARTESIAN_POINT('',(0.,3.5,0.));
#1463=CARTESIAN_POINT('Origin',(-196.5,0.,15.));
#1464=CARTESIAN_POINT('',(-196.5,30.,0.));
#1465=CARTESIAN_POINT('Origin',(-196.5,0.,0.));
#1466=CARTESIAN_POINT('',(-196.5,30.,0.));
#1467=CARTESIAN_POINT('Origin',(-192.,0.,15.));
#1468=CARTESIAN_POINT('',(-192.,23.,0.));
#1469=CARTESIAN_POINT('',(-192.,30.,0.));
#1470=CARTESIAN_POINT('',(-192.,23.,17.));
#1471=CARTESIAN_POINT('',(-192.,23.,7.5));
#1472=CARTESIAN_POINT('',(-192.,17.,23.));
#1473=CARTESIAN_POINT('',(-192.,17.75,22.25));
#1474=CARTESIAN_POINT('',(-192.,-17.,23.));
#1475=CARTESIAN_POINT('',(-192.,8.5,23.));
#1476=CARTESIAN_POINT('',(-192.,-23.,17.));
#1477=CARTESIAN_POINT('',(-192.,-14.75,25.25));
#1478=CARTESIAN_POINT('',(-192.,-23.,16.));
#1479=CARTESIAN_POINT('Origin',(0.,0.,0.));
#1480=CARTESIAN_POINT('',(4.5,3.5,0.));
#1481=CARTESIAN_POINT('',(0.,3.5,0.));
#1482=CARTESIAN_POINT('Origin',(4.5,0.,0.));
#1483=CARTESIAN_POINT('Origin',(4.5,0.,15.));
#1484=CARTESIAN_POINT('',(4.5,30.,0.));
#1485=CARTESIAN_POINT('',(4.5,3.5,0.));
#1486=CARTESIAN_POINT('Origin',(4.5,0.,0.));
#1487=CARTESIAN_POINT('Origin',(-128.5,32.5,6.4951905283833));
#1488=CARTESIAN_POINT('',(-133.6,32.5,6.4951905283833));
#1489=CARTESIAN_POINT('Origin',(-128.5,32.5,6.4951905283833));
#1490=CARTESIAN_POINT('',(-133.6,23.,6.4951905283833));
#1491=CARTESIAN_POINT('',(-133.6,32.5,6.4951905283833));
#1492=CARTESIAN_POINT('Origin',(-128.5,23.,6.4951905283833));
#1493=CARTESIAN_POINT('Origin',(-63.4414498589091,32.5,6.44481037900675));
#1494=CARTESIAN_POINT('',(-68.5414498589091,32.5,6.44481037900675));
#1495=CARTESIAN_POINT('Origin',(-63.4414498589091,32.5,6.44481037900675));
#1496=CARTESIAN_POINT('',(-68.5414498589091,23.,6.44481037900674));
#1497=CARTESIAN_POINT('',(-68.5414498589091,32.5,6.44481037900675));
#1498=CARTESIAN_POINT('Origin',(-63.4414498589091,23.,6.44481037900674));
#1499=CARTESIAN_POINT('Origin',(0.,23.,17.));
#1500=CARTESIAN_POINT('',(-23.,23.,17.));
#1501=CARTESIAN_POINT('',(0.,23.,17.));
#1502=CARTESIAN_POINT('',(-23.,23.,18.));
#1503=CARTESIAN_POINT('',(-23.,23.,18.));
#1504=CARTESIAN_POINT('',(-169.,23.,18.));
#1505=CARTESIAN_POINT('',(-169.,23.,18.));
#1506=CARTESIAN_POINT('',(-169.,23.,17.));
#1507=CARTESIAN_POINT('',(-169.,23.,18.));
#1508=CARTESIAN_POINT('',(-192.,23.,17.));
#1509=CARTESIAN_POINT('',(-96.,23.,8.57252759403148E-16));
#1510=CARTESIAN_POINT('Origin',(-56.,32.5,12.9903810567666));
#1511=CARTESIAN_POINT('',(-56.,32.5,0.));
#1512=CARTESIAN_POINT('',(-56.,32.5,12.9903810567666));
#1513=CARTESIAN_POINT('',(-56.,32.5,15.2451905283833));
#1514=CARTESIAN_POINT('',(-71.,32.5,0.));
#1515=CARTESIAN_POINT('',(-56.,32.5,0.));
#1516=CARTESIAN_POINT('',(-71.,32.5,12.9903810567666));
#1517=CARTESIAN_POINT('',(-71.,32.5,12.9903810567666));
#1518=CARTESIAN_POINT('',(-56.,32.5,12.9903810567666));
#1519=CARTESIAN_POINT('Origin',(-96.,-2.64995619829611,11.8975881816112));
#1520=CARTESIAN_POINT('',(-56.,20.1245547566394,18.));
#1521=CARTESIAN_POINT('',(-136.,20.1245547566394,18.));
#1522=CARTESIAN_POINT('',(-132.5,20.1245547566394,18.));
#1523=CARTESIAN_POINT('',(-56.,20.331531511206,18.0554592542381));
#1524=CARTESIAN_POINT('',(-56.,-26.6353524136672,5.47072063556205));
#1525=CARTESIAN_POINT('',(-136.,20.331531511206,18.0554592542381));
#1526=CARTESIAN_POINT('',(-56.,20.331531511206,18.0554592542381));
#1527=CARTESIAN_POINT('',(-136.,20.331531511206,18.0554592542381));
#1528=CARTESIAN_POINT('Origin',(-56.,-28.996091494131,18.2967528507423));
#1529=CARTESIAN_POINT('',(-56.,-28.996091494131,18.2967528507423));
#1530=CARTESIAN_POINT('',(-136.,-28.996091494131,18.2967528507423));
#1531=CARTESIAN_POINT('',(-56.,-28.996091494131,18.2967528507423));
#1532=CARTESIAN_POINT('',(-56.,-25.6314439077982,5.73971710898439));
#1533=CARTESIAN_POINT('',(-56.,-28.996091494131,18.2967528507423));
#1534=CARTESIAN_POINT('',(-136.,-25.6314439077982,5.73971710898439));
#1535=CARTESIAN_POINT('',(-136.,-25.6314439077982,5.73971710898439));
#1536=CARTESIAN_POINT('',(-136.,-28.996091494131,18.2967528507423));
#1537=CARTESIAN_POINT('Origin',(-136.,16.9668839248732,30.612494995996));
#1538=CARTESIAN_POINT('',(-56.,16.9668839248732,30.612494995996));
#1539=CARTESIAN_POINT('',(-136.,16.9668839248732,30.612494995996));
#1540=CARTESIAN_POINT('',(-56.,16.9668839248732,30.612494995996));
#1541=CARTESIAN_POINT('',(-136.,16.9668839248732,30.612494995996));
#1542=CARTESIAN_POINT('',(-56.,16.9668839248732,30.612494995996));
#1543=CARTESIAN_POINT('Origin',(-96.,-2.64995619829611,11.8975881816112));
#1544=CARTESIAN_POINT('',(-136.,-23.,6.44481037900671));
#1545=CARTESIAN_POINT('',(-56.,-23.,6.44481037900671));
#1546=CARTESIAN_POINT('',(-48.,-23.,6.4448103790067));
#1547=CARTESIAN_POINT('',(-136.,20.331531511206,18.0554592542381));
#1548=CARTESIAN_POINT('',(-56.,-26.6353524136672,5.47072063556205));
#1549=CARTESIAN_POINT('Origin',(-169.,23.,18.));
#1550=CARTESIAN_POINT('',(-56.,-23.,18.));
#1551=CARTESIAN_POINT('',(-56.,19.9834419624366,18.));
#1552=CARTESIAN_POINT('',(-136.,-23.,18.));
#1553=CARTESIAN_POINT('',(-136.,-2.99804574706548,18.));
#1554=CARTESIAN_POINT('',(-169.,-23.,18.));
#1555=CARTESIAN_POINT('',(-169.,-23.,18.));
#1556=CARTESIAN_POINT('',(-169.,-22.,18.));
#1557=CARTESIAN_POINT('',(-169.,-23.,18.));
#1558=CARTESIAN_POINT('',(-169.,22.,18.));
#1559=CARTESIAN_POINT('',(-169.,11.5,18.));
#1560=CARTESIAN_POINT('',(-169.,-23.,18.));
#1561=CARTESIAN_POINT('',(-23.,22.,18.));
#1562=CARTESIAN_POINT('',(-23.,-23.,18.));
#1563=CARTESIAN_POINT('',(-23.,-22.,18.));
#1564=CARTESIAN_POINT('',(-23.,11.5,18.));
#1565=CARTESIAN_POINT('',(-23.,-23.,18.));
#1566=CARTESIAN_POINT('',(-23.,-23.,18.));
#1567=CARTESIAN_POINT('',(-169.,-23.,18.));
#1568=CARTESIAN_POINT('Origin',(-23.,0.,9.));
#1569=CARTESIAN_POINT('',(-23.,23.,17.));
#1570=CARTESIAN_POINT('Origin',(-169.,0.,9.));
#1571=CARTESIAN_POINT('',(-169.,17.,23.));
#1572=CARTESIAN_POINT('Origin',(-169.,0.,9.));
#1573=CARTESIAN_POINT('',(-169.,-23.,17.));
#1574=CARTESIAN_POINT('',(-169.,-23.,17.));
#1575=CARTESIAN_POINT('',(-169.,-23.,0.));
#1576=CARTESIAN_POINT('Origin',(-23.,0.,9.));
#1577=CARTESIAN_POINT('',(-23.,-23.,17.));
#1578=CARTESIAN_POINT('',(-23.,-17.,23.));
#1579=CARTESIAN_POINT('',(-23.,-23.,0.));
#1580=CARTESIAN_POINT('Origin',(-23.,0.,11.5));
#1581=CARTESIAN_POINT('',(-23.,17.,23.));
#1582=CARTESIAN_POINT('',(-23.,23.,17.));
#1583=CARTESIAN_POINT('',(-23.,-17.,23.));
#1584=CARTESIAN_POINT('',(-23.,17.,23.));
#1585=CARTESIAN_POINT('',(-23.,-17.,23.));
#1586=CARTESIAN_POINT('Origin',(0.,-30.,0.));
#1587=CARTESIAN_POINT('',(-146.,30.,0.));
#1588=CARTESIAN_POINT('',(-146.,30.,0.));
#1589=CARTESIAN_POINT('',(-146.,35.,0.));
#1590=CARTESIAN_POINT('',(-146.,35.,0.));
#1591=CARTESIAN_POINT('',(-136.,35.,0.));
#1592=CARTESIAN_POINT('',(-136.,35.,0.));
#1593=CARTESIAN_POINT('',(-136.,32.5,0.));
#1594=CARTESIAN_POINT('',(-136.,35.,0.));
#1595=CARTESIAN_POINT('',(-121.,32.5,0.));
#1596=CARTESIAN_POINT('',(-121.,32.5,0.));
#1597=CARTESIAN_POINT('',(-121.,35.,0.));
#1598=CARTESIAN_POINT('',(-121.,35.,0.));
#1599=CARTESIAN_POINT('',(-71.,35.,0.));
#1600=CARTESIAN_POINT('',(-71.,35.,0.));
#1601=CARTESIAN_POINT('',(-71.,35.,0.));
#1602=CARTESIAN_POINT('',(-56.,35.,2.14313189850787E-15));
#1603=CARTESIAN_POINT('',(-56.,35.8217464520362,0.));
#1604=CARTESIAN_POINT('',(-46.,35.,2.14313189850787E-15));
#1605=CARTESIAN_POINT('',(-46.,35.,2.14313189850787E-15));
#1606=CARTESIAN_POINT('',(-46.,30.,0.));
#1607=CARTESIAN_POINT('',(-46.,35.8217464520362,0.));
#1608=CARTESIAN_POINT('',(0.,30.,0.));
#1609=CARTESIAN_POINT('Origin',(0.,-23.,17.));
#1610=CARTESIAN_POINT('',(0.,-23.,17.));
#1611=CARTESIAN_POINT('',(0.,-17.,23.));
#1612=CARTESIAN_POINT('Origin',(0.,-23.,0.));
#1613=CARTESIAN_POINT('',(-56.,-23.,15.306247497998));
#1614=CARTESIAN_POINT('',(-192.,-23.,17.));
#1615=CARTESIAN_POINT('',(-136.,-23.,9.14837642537114));
#1616=CARTESIAN_POINT('Origin',(0.,17.,23.));
#1617=CARTESIAN_POINT('',(0.,17.,23.));
#1618=CARTESIAN_POINT('Origin',(0.,-17.,23.));
#1619=CARTESIAN_POINT('Origin',(-192.,-17.,23.));
#1620=CARTESIAN_POINT('',(-169.,-17.,23.));
#1621=CARTESIAN_POINT('',(-192.,-17.,23.));
#1622=CARTESIAN_POINT('',(-169.,-23.,17.));
#1623=CARTESIAN_POINT('Origin',(-192.,17.,23.));
#1624=CARTESIAN_POINT('',(-169.,17.,23.));
#1625=CARTESIAN_POINT('',(-192.,17.,23.));
#1626=CARTESIAN_POINT('',(-169.,-17.,23.));
#1627=CARTESIAN_POINT('Origin',(-192.,23.,17.));
#1628=CARTESIAN_POINT('',(-169.,17.,23.));
#1629=CARTESIAN_POINT('Origin',(-169.,0.,11.5));
#1630=CARTESIAN_POINT('Origin',(0.,0.,0.));
#1631=CARTESIAN_POINT('Origin',(-46.,0.,0.));
#1632=CARTESIAN_POINT('Origin',(-146.,0.,0.));
#1633=CARTESIAN_POINT('Origin',(-146.,0.,0.));
#1634=CARTESIAN_POINT('Origin',(-136.,0.,17.5));
#1635=CARTESIAN_POINT('',(-136.,-30.,18.0277563773199));
#1636=CARTESIAN_POINT('',(-136.,-30.,18.0277563773199));
#1637=CARTESIAN_POINT('Origin',(-136.,0.,0.));
#1638=CARTESIAN_POINT('Origin',(-136.,0.,17.5));
#1639=CARTESIAN_POINT('',(-136.,32.5,12.9903810567666));
#1640=CARTESIAN_POINT('',(-136.,32.5,12.9903810567666));
#1641=CARTESIAN_POINT('Origin',(-136.,0.,0.));
#1642=CARTESIAN_POINT('Origin',(-146.,0.,17.5));
#1643=CARTESIAN_POINT('Origin',(-146.,0.,0.));
#1644=CARTESIAN_POINT('Origin',(-121.,32.5,12.9903810567666));
#1645=CARTESIAN_POINT('',(-121.,32.5,12.9903810567666));
#1646=CARTESIAN_POINT('',(-121.,32.5,14.1483142773823));
#1647=CARTESIAN_POINT('',(-121.,32.5,12.9903810567666));
#1648=CARTESIAN_POINT('Origin',(-121.,0.,15.306247497998));
#1649=CARTESIAN_POINT('Origin',(-121.,0.,0.));
#1650=CARTESIAN_POINT('Origin',(-71.,0.,15.306247497998));
#1651=CARTESIAN_POINT('Origin',(-71.,0.,0.));
#1652=CARTESIAN_POINT('Origin',(-56.,-30.,18.0277563773199));
#1653=CARTESIAN_POINT('',(-56.,-30.,18.0277563773199));
#1654=CARTESIAN_POINT('',(-56.,-30.,18.0277563773199));
#1655=CARTESIAN_POINT('',(-56.,-16.0707790187817,21.760079890432));
#1656=CARTESIAN_POINT('Origin',(-56.,0.,17.5));
#1657=CARTESIAN_POINT('Origin',(-56.,0.,0.));
#1658=CARTESIAN_POINT('Origin',(-56.,0.,17.5));
#1659=CARTESIAN_POINT('Origin',(-56.,0.,0.));
#1660=CARTESIAN_POINT('Origin',(-46.,0.,0.));
#1661=CARTESIAN_POINT('Origin',(-46.,0.,0.));
#1662=CARTESIAN_POINT('Origin',(-46.,0.,17.5));
#1663=CARTESIAN_POINT('Origin',(-56.,32.5,12.9903810567666));
#1664=CARTESIAN_POINT('',(-63.5577919491872,32.5,6.44481037900675));
#1665=CARTESIAN_POINT('',(-63.4996209040482,32.5,6.49519052838332));
#1666=CARTESIAN_POINT('',(-59.7788959745936,32.5,9.71759571788665));
#1667=CARTESIAN_POINT('',(-63.4414498589091,32.5,6.44481037900675));
#1668=CARTESIAN_POINT('',(-62.9641193729138,32.5,6.03140915630341));
#1669=CARTESIAN_POINT('',(-59.7207249294545,32.5,6.44481037900675));
#1670=CARTESIAN_POINT('Origin',(0.,23.,17.));
#1671=CARTESIAN_POINT('',(-63.4996209040482,23.,6.49519052838331));
#1672=CARTESIAN_POINT('',(-63.5577919491872,23.,6.44481037900674));
#1673=CARTESIAN_POINT('',(-42.7874586483702,23.,24.4333559138896));
#1674=CARTESIAN_POINT('',(-63.4414498589091,23.,6.44481037900674));
#1675=CARTESIAN_POINT('',(-31.7207249294545,23.,6.44481037900674));
#1676=CARTESIAN_POINT('',(-47.9569431522393,23.,-6.96584365065974));
#1677=CARTESIAN_POINT('Origin',(-63.4414498589091,32.5,6.44481037900675));
#1678=CARTESIAN_POINT('',(-63.5577919491872,32.5,6.44481037900675));
#1679=CARTESIAN_POINT('',(-63.4414498589091,32.5,6.44481037900675));
#1680=CARTESIAN_POINT('Origin',(-63.5577919491872,32.5,6.44481037900675));
#1681=CARTESIAN_POINT('',(-63.4996209040482,32.5,6.49519052838332));
#1682=CARTESIAN_POINT('Origin',(-63.4996209040482,32.5,6.49519052838332));
#1683=UNCERTAINTY_MEASURE_WITH_UNIT(LENGTH_MEASURE(0.01),#1687,
'DISTANCE_ACCURACY_VALUE',
'Maximum model space distance between geometric entities at asserted c
onnectivities');
#1684=UNCERTAINTY_MEASURE_WITH_UNIT(LENGTH_MEASURE(0.01),#1687,
'DISTANCE_ACCURACY_VALUE',
'Maximum model space distance between geometric entities at asserted c
onnectivities');
#1685=(
GEOMETRIC_REPRESENTATION_CONTEXT(3)
GLOBAL_UNCERTAINTY_ASSIGNED_CONTEXT((#1683))
GLOBAL_UNIT_ASSIGNED_CONTEXT((#1687,#1689,#1690))
REPRESENTATION_CONTEXT('','3D')
);
#1686=(
GEOMETRIC_REPRESENTATION_CONTEXT(3)
GLOBAL_UNCERTAINTY_ASSIGNED_CONTEXT((#1684))
GLOBAL_UNIT_ASSIGNED_CONTEXT((#1687,#1689,#1690))
REPRESENTATION_CONTEXT('','3D')
);
#1687=(
LENGTH_UNIT()
NAMED_UNIT(*)
SI_UNIT(.MILLI.,.METRE.)
);
#1688=(
LENGTH_UNIT()
NAMED_UNIT(*)
SI_UNIT(.CENTI.,.METRE.)
);
#1689=(
NAMED_UNIT(*)
PLANE_ANGLE_UNIT()
SI_UNIT($,.RADIAN.)
);
#1690=(
NAMED_UNIT(*)
SI_UNIT($,.STERADIAN.)
SOLID_ANGLE_UNIT()
);
#1691=SHAPE_DEFINITION_REPRESENTATION(#1692,#1693);
#1692=PRODUCT_DEFINITION_SHAPE('',$,#1695);
#1693=SHAPE_REPRESENTATION('',(#1043),#1685);
#1694=PRODUCT_DEFINITION_CONTEXT('part definition',#1699,'design');
#1695=PRODUCT_DEFINITION('ObereHaelfte','ObereHaelfte',#1696,#1694);
#1696=PRODUCT_DEFINITION_FORMATION('',$,#1701);
#1697=PRODUCT_RELATED_PRODUCT_CATEGORY('ObereHaelfte','ObereHaelfte',(#1701));
#1698=APPLICATION_PROTOCOL_DEFINITION('international standard',
'automotive_design',2009,#1699);
#1699=APPLICATION_CONTEXT(
'Core Data for Automotive Mechanical Design Process');
#1700=PRODUCT_CONTEXT('part definition',#1699,'mechanical');
#1701=PRODUCT('ObereHaelfte','ObereHaelfte',$,(#1700));
#1702=PRESENTATION_STYLE_ASSIGNMENT((#1703));
#1703=SURFACE_STYLE_USAGE(.BOTH.,#1706);
#1704=SURFACE_STYLE_RENDERING_WITH_PROPERTIES($,#1710,(#1705));
#1705=SURFACE_STYLE_TRANSPARENT(0.);
#1706=SURFACE_SIDE_STYLE('',(#1707,#1704));
#1707=SURFACE_STYLE_FILL_AREA(#1708);
#1708=FILL_AREA_STYLE('',(#1709));
#1709=FILL_AREA_STYLE_COLOUR('',#1710);
#1710=COLOUR_RGB('',0.749019607843137,0.749019607843137,0.749019607843137);
ENDSEC;
END-ISO-10303-21;
